  0
SECTION
  2
HEADER
  9
$ACADVER
  1
AC1014
  9
$ACADMAINTVER
 70
     9
  9
$DWGCODEPAGE
  3
ANSI_1252
  9
$INSBASE
 10
0.0
 20
0.0
 30
0.0
  9
$EXTMIN
 10
0.0
 20
0.0
 30
0.0
  9
$EXTMAX
 10
25.0
 20
35.0
 30
0.0
  9
$LIMMIN
 10
0.0
 20
0.0
  9
$LIMMAX
 10
420.0
 20
297.0
  9
$ORTHOMODE
 70
     0
  9
$REGENMODE
 70
     1
  9
$FILLMODE
 70
     1
  9
$QTEXTMODE
 70
     0
  9
$MIRRTEXT
 70
     1
  9
$DRAGMODE
 70
     2
  9
$LTSCALE
 40
1.2
  9
$OSMODE
 70
    37
  9
$ATTMODE
 70
     1
  9
$TEXTSIZE
 40
2.5
  9
$TRACEWID
 40
1.0
  9
$TEXTSTYLE
  7
STANDARD
  9
$CLAYER
  8
0
  9
$CELTYPE
  6
BYLAYER
  9
$CECOLOR
 62
   256
  9
$CELTSCALE
 40
1.0
  9
$DELOBJ
 70
     1
  9
$DISPSILH
 70
     0
  9
$DIMSCALE
 40
1.0
  9
$DIMASZ
 40
2.5
  9
$DIMEXO
 40
0.625
  9
$DIMDLI
 40
3.75
  9
$DIMRND
 40
0.0
  9
$DIMDLE
 40
0.0
  9
$DIMEXE
 40
1.25
  9
$DIMTP
 40
0.0
  9
$DIMTM
 40
0.0
  9
$DIMTXT
 40
2.5
  9
$DIMCEN
 40
2.5
  9
$DIMTSZ
 40
0.0
  9
$DIMTOL
 70
     0
  9
$DIMLIM
 70
     0
  9
$DIMTIH
 70
     0
  9
$DIMTOH
 70
     0
  9
$DIMSE1
 70
     0
  9
$DIMSE2
 70
     0
  9
$DIMTAD
 70
     1
  9
$DIMZIN
 70
     8
  9
$DIMBLK
  1

  9
$DIMASO
 70
     1
  9
$DIMSHO
 70
     1
  9
$DIMPOST
  1

  9
$DIMAPOST
  1

  9
$DIMALT
 70
     0
  9
$DIMALTD
 70
     3
  9
$DIMALTF
 40
0.03937007874016
  9
$DIMLFAC
 40
1.0
  9
$DIMTOFL
 70
     1
  9
$DIMTVP
 40
0.0
  9
$DIMTIX
 70
     0
  9
$DIMSOXD
 70
     0
  9
$DIMSAH
 70
     0
  9
$DIMBLK1
  1

  9
$DIMBLK2
  1

  9
$DIMSTYLE
  2
ISO-25
  9
$DIMCLRD
 70
     0
  9
$DIMCLRE
 70
     0
  9
$DIMCLRT
 70
     0
  9
$DIMTFAC
 40
1.0
  9
$DIMGAP
 40
0.625
  9
$DIMJUST
 70
     0
  9
$DIMSD1
 70
     0
  9
$DIMSD2
 70
     0
  9
$DIMTOLJ
 70
     0
  9
$DIMTZIN
 70
     8
  9
$DIMALTZ
 70
     0
  9
$DIMALTTZ
 70
     0
  9
$DIMFIT
 70
     3
  9
$DIMUPT
 70
     0
  9
$DIMUNIT
 70
     2
  9
$DIMDEC
 70
     2
  9
$DIMTDEC
 70
     2
  9
$DIMALTU
 70
     2
  9
$DIMALTTD
 70
     3
  9
$DIMTXSTY
  7
STANDARD
  9
$DIMAUNIT
 70
     0
  9
$LUNITS
 70
     2
  9
$LUPREC
 70
     4
  9
$SKETCHINC
 40
1.0
  9
$FILLETRAD
 40
10.0
  9
$AUNITS
 70
     0
  9
$AUPREC
 70
     0
  9
$MENU
  1
.
  9
$ELEVATION
 40
0.0
  9
$PELEVATION
 40
0.0
  9
$THICKNESS
 40
0.0
  9
$LIMCHECK
 70
     0
  9
$CHAMFERA
 40
10.0
  9
$CHAMFERB
 40
10.0
  9
$CHAMFERC
 40
20.0
  9
$CHAMFERD
 40
0.0
  9
$SKPOLY
 70
     0
  9
$TDCREATE
 40
2456562.743055556
  9
$TDUPDATE
 40
2456562.746527778
  9
$TDINDWG
 40
0.0000000116
  9
$TDUSRTIMER
 40
0.0000000116
  9
$USRTIMER
 70
     1
  9
$ANGBASE
 50
0.0
  9
$ANGDIR
 70
     0
  9
$PDMODE
 70
     0
  9
$PDSIZE
 40
0.0
  9
$PLINEWID
 40
0.0
  9
$COORDS
 70
     1
  9
$SPLFRAME
 70
     0
  9
$SPLINETYPE
 70
     6
  9
$SPLINESEGS
 70
     8
  9
$ATTDIA
 70
     0
  9
$ATTREQ
 70
     1
  9
$HANDLING
 70
     1
  9
$HANDSEED
  5
343
  9
$SURFTAB1
 70
     6
  9
$SURFTAB2
 70
     6
  9
$SURFTYPE
 70
     6
  9
$SURFU
 70
     6
  9
$SURFV
 70
     6
  9
$UCSNAME
  2

  9
$UCSORG
 10
0.0
 20
0.0
 30
0.0
  9
$UCSXDIR
 10
1.0
 20
0.0
 30
0.0
  9
$UCSYDIR
 10
0.0
 20
1.0
 30
0.0
  9
$PUCSNAME
  2

  9
$PUCSORG
 10
0.0
 20
0.0
 30
0.0
  9
$PUCSXDIR
 10
1.0
 20
0.0
 30
0.0
  9
$PUCSYDIR
 10
0.0
 20
1.0
 30
0.0
  9
$USERI1
 70
     0
  9
$USERI2
 70
     0
  9
$USERI3
 70
     0
  9
$USERI4
 70
     0
  9
$USERI5
 70
     0
  9
$USERR1
 40
0.0
  9
$USERR2
 40
0.0
  9
$USERR3
 40
0.0
  9
$USERR4
 40
0.0
  9
$USERR5
 40
0.0
  9
$WORLDVIEW
 70
     1
  9
$SHADEDGE
 70
     3
  9
$SHADEDIF
 70
    70
  9
$TILEMODE
 70
     1
  9
$MAXACTVP
 70
    64
  9
$PINSBASE
 10
0.0
 20
0.0
 30
0.0
  9
$PLIMCHECK
 70
     0
  9
$PEXTMIN
 10
1.000000000000000E+20
 20
1.000000000000000E+20
 30
1.000000000000000E+20
  9
$PEXTMAX
 10
-1.000000000000000E+20
 20
-1.000000000000000E+20
 30
-1.000000000000000E+20
  9
$PLIMMIN
 10
0.0
 20
0.0
  9
$PLIMMAX
 10
420.0
 20
297.0
  9
$UNITMODE
 70
     0
  9
$VISRETAIN
 70
     1
  9
$PLINEGEN
 70
     0
  9
$PSLTSCALE
 70
     1
  9
$TREEDEPTH
 70
  3020
  9
$PICKSTYLE
 70
     1
  9
$CMLSTYLE
  2
STANDARD
  9
$CMLJUST
 70
     0
  9
$CMLSCALE
 40
20.0
  9
$PROXYGRAPHICS
 70
     1
  9
$MEASUREMENT
 70
     1
  0
ENDSEC
  0
SECTION
  2
CLASSES
  0
CLASS
  1
ACDBDICTIONARYWDFLT
  2
AcDbDictionaryWithDefault
  3
ObjectDBX Classes
 90
        0
280
     0
281
     0
  0
CLASS
  1
VISUALSTYLE
  2
AcDbVisualStyle
  3
ObjectDBX Classes
 90
     4095
280
     0
281
     0
  0
CLASS
  1
MATERIAL
  2
AcDbMaterial
  3
ObjectDBX Classes
 90
     1153
280
     0
281
     0
  0
CLASS
  1
SCALE
  2
AcDbScale
  3
ObjectDBX Classes
 90
     1153
280
     0
281
     0
  0
CLASS
  1
DICTIONARYVAR
  2
AcDbDictionaryVar
  3
ObjectDBX Classes
 90
        0
280
     0
281
     0
  0
CLASS
  1
XRECORD
  2
AcDbXrecord
  3
AutoCAD 2000
 90
        0
280
     0
281
     0
  0
CLASS
  1
LWPOLYLINE
  2
AcDbPolyline
  3
AutoCAD 2000
 90
        0
280
     0
281
     1
  0
CLASS
  1
HATCH
  2
AcDbHatch
  3
AutoCAD 2000
 90
        0
280
     0
281
     1
  0
CLASS
  1
ACDBPLACEHOLDER
  2
AcDbPlaceHolder
  3
ObjectDBX Classes
 90
        0
280
     0
281
     0
  0
CLASS
  1
LAYOUT
  2
AcDbLayout
  3
ObjectDBX Classes
 90
        0
280
     0
281
     0
  0
ENDSEC
  0
SECTION
  2
TABLES
  0
TABLE
  2
VPORT
  5
8
330
0
100
AcDbSymbolTable
 70
     1
  0
VPORT
  5
29
330
8
100
AcDbSymbolTableRecord
100
AcDbViewportTableRecord
  2
*ACTIVE
 70
     0
 10
0.0
 20
0.0
 11
1.0
 21
1.0
 12
11.26
 22
4.5
 13
0.0
 23
0.0
 14
10.0
 24
10.0
 15
10.0
 25
10.0
 16
0.0
 26
0.0
 36
1.0
 17
0.0
 27
0.0
 37
0.0
 40
9.0
 41
2.503333333333333
 42
50.0
 43
0.0
 44
0.0
 50
0.0
 51
0.0
 71
     0
 72
   100
 73
     1
 74
     3
 75
     0
 76
     0
 77
     0
 78
     0
  0
ENDTAB
  0
TABLE
  2
LTYPE
  5
5
330
0
100
AcDbSymbolTable
 70
     1
  0
LTYPE
  5
14
330
5
100
AcDbSymbolTableRecord
100
AcDbLinetypeTableRecord
  2
BYBLOCK
 70
     0
  3

 72
    65
 73
     0
 40
0.0
  0
LTYPE
  5
15
330
5
100
AcDbSymbolTableRecord
100
AcDbLinetypeTableRecord
  2
BYLAYER
 70
     0
  3

 72
    65
 73
     0
 40
0.0
  0
LTYPE
  5
16
330
5
100
AcDbSymbolTableRecord
100
AcDbLinetypeTableRecord
  2
CONTINUOUS
 70
     0
  3
Solid line
 72
    65
 73
     0
 40
0.0
  0
ENDTAB
  0
TABLE
  2
LAYER
  5
2
330
0
100
AcDbSymbolTable
 70
     1
  0
LAYER
  5
10
330
2
100
AcDbSymbolTableRecord
100
AcDbLayerTableRecord
  2
0
 70
     0
 62
     7
  6
CONTINUOUS
  0
ENDTAB
  0
TABLE
  2
STYLE
  5
3
330
0
100
AcDbSymbolTable
 70
     1
  0
STYLE
  5
11
330
3
100
AcDbSymbolTableRecord
100
AcDbTextStyleTableRecord
  2
STANDARD
 70
     0
 40
0.0
 41
1.0
 50
0.0
 71
     0
 42
2.5
  3
txt
  4

  0
ENDTAB
  0
TABLE
  2
VIEW
  5
6
330
0
100
AcDbSymbolTable
 70
     0
  0
ENDTAB
  0
TABLE
  2
UCS
  5
7
330
0
100
AcDbSymbolTable
 70
     0
  0
ENDTAB
  0
TABLE
  2
APPID
  5
9
330
0
100
AcDbSymbolTable
 70
     2
  0
APPID
  5
12
330
9
100
AcDbSymbolTableRecord
100
AcDbRegAppTableRecord
  2
ACAD
 70
     0
  0
APPID
  5
3F
330
9
100
AcDbSymbolTableRecord
100
AcDbRegAppTableRecord
  2
CCLAB
 70
     0
  0
ENDTAB
  0
TABLE
  2
DIMSTYLE
  5
A
330
0
100
AcDbSymbolTable
 70
     1
  0
DIMSTYLE
105
27
330
A
100
AcDbSymbolTableRecord
100
AcDbDimStyleTableRecord
  2
ISO-25
 70
     0
  3

  4

  5

  6

  7

 40
1.0
 41
2.5
 42
0.625
 43
3.75
 44
1.25
 45
0.0
 46
0.0
 47
0.0
 48
0.0
140
2.5
141
2.5
142
0.0
143
0.03937007874016
144
1.0
145
0.0
146
1.0
147
0.625
 71
     0
 72
     0
 73
     0
 74
     0
 75
     0
 76
     0
 77
     1
 78
     8
170
     0
171
     3
172
     1
173
     0
174
     0
175
     0
176
     0
177
     0
178
     0
270
     2
271
     2
272
     2
273
     2
274
     3
340
11
275
     0
280
     0
281
     0
282
     0
283
     0
284
     8
285
     0
286
     0
287
     3
288
     0
  0
ENDTAB
  0
TABLE
  2
BLOCK_RECORD
  5
1
330
0
100
AcDbSymbolTable
 70
     4
  0
BLOCK_RECORD
  5
1F
330
1
100
AcDbSymbolTableRecord
100
AcDbBlockTableRecord
  2
*MODEL_SPACE
  0
BLOCK_RECORD
  5
1B
330
1
100
AcDbSymbolTableRecord
100
AcDbBlockTableRecord
  2
*PAPER_SPACE
  0
ENDTAB
  0
ENDSEC
  0
SECTION
  2
BLOCKS
  0
BLOCK
  5
20
330
1F
100
AcDbEntity
  8
0
100
AcDbBlockBegin
  2
*MODEL_SPACE
 70
     0
 10
0.0
 20
0.0
 30
0.0
  3
*MODEL_SPACE
  1

  0
ENDBLK
  5
21
330
1F
100
AcDbEntity
  8
0
100
AcDbBlockEnd
  0
BLOCK
  5
1C
330
1B
100
AcDbEntity
 67
     1
  8
0
100
AcDbBlockBegin
  2
*PAPER_SPACE
 70
     0
 10
0.0
 20
0.0
 30
0.0
  3
*PAPER_SPACE
  1

  0
ENDBLK
  5
1D
330
1B
100
AcDbEntity
 67
     1
  8
0
100
AcDbBlockEnd
  0
ENDSEC
  0
SECTION
  2
ENTITIES
  0
LINE
  5
1C1
330
1F
100
AcDbEntity
  8
0
100
AcDbLine
 10
-9.998489
 20
-8.567297
 30
0.0
 11
-10.0
 21
-8.5
 31
0.0
  0
LINE
  5
1C2
330
1F
100
AcDbEntity
  8
0
100
AcDbLine
 10
10.0
 20
8.5
 30
0.0
 11
9.998489
 21
8.567297
 31
0.0
  0
LINE
  5
1C3
330
1F
100
AcDbEntity
  8
0
100
AcDbLine
 10
-2.742013
 20
-0.209433
 30
0.0
 11
-2.749112
 21
-0.069871
 31
0.0
  0
LINE
  5
1C4
330
1F
100
AcDbEntity
  8
0
100
AcDbLine
 10
2.749112
 20
0.069871
 30
0.0
 11
2.742013
 21
0.209433
 31
0.0
  0
LINE
  5
1C5
330
1F
100
AcDbEntity
  8
0
100
AcDbLine
 10
-9.993960999999999
 20
-8.634459
 30
0.0
 11
-9.998489
 21
-8.567297
 31
0.0
  0
LINE
  5
1C6
330
1F
100
AcDbEntity
  8
0
100
AcDbLine
 10
9.998489
 20
8.567297
 30
0.0
 11
9.993960999999999
 21
8.634459
 31
0.0
  0
LINE
  5
1C7
330
1F
100
AcDbEntity
  8
0
100
AcDbLine
 10
-2.727834
 20
-0.348454
 30
0.0
 11
-2.742013
 21
-0.209433
 31
0.0
  0
LINE
  5
1C8
330
1F
100
AcDbEntity
  8
0
100
AcDbLine
 10
2.742013
 20
0.209433
 30
0.0
 11
2.727834
 21
0.348454
 31
0.0
  0
LINE
  5
1C9
330
1F
100
AcDbEntity
  8
0
100
AcDbLine
 10
-9.986424
 20
-8.70135
 30
0.0
 11
-9.993960999999999
 21
-8.634459
 31
0.0
  0
LINE
  5
1CA
330
1F
100
AcDbEntity
  8
0
100
AcDbLine
 10
9.993960999999999
 20
8.634459
 30
0.0
 11
9.986424
 21
8.70135
 31
0.0
  0
LINE
  5
1CB
330
1F
100
AcDbEntity
  8
0
100
AcDbLine
 10
-2.706611
 20
-0.486575
 30
0.0
 11
-2.727834
 21
-0.348454
 31
0.0
  0
LINE
  5
1CC
330
1F
100
AcDbEntity
  8
0
100
AcDbLine
 10
2.727834
 20
0.348454
 30
0.0
 11
2.706611
 21
0.486575
 31
0.0
  0
LINE
  5
1CD
330
1F
100
AcDbEntity
  8
0
100
AcDbLine
 10
-9.975894
 20
-8.767835999999999
 30
0.0
 11
-9.986424
 21
-8.70135
 31
0.0
  0
LINE
  5
1CE
330
1F
100
AcDbEntity
  8
0
100
AcDbLine
 10
9.986424
 20
8.70135
 30
0.0
 11
9.975894
 21
8.767835999999999
 31
0.0
  0
LINE
  5
1CF
330
1F
100
AcDbEntity
  8
0
100
AcDbLine
 10
-9.962392
 20
-8.833781
 30
0.0
 11
-9.975894
 21
-8.767835999999999
 31
0.0
  0
LINE
  5
1D0
330
1F
100
AcDbEntity
  8
0
100
AcDbLine
 10
9.975894
 20
8.767835999999999
 30
0.0
 11
9.962392
 21
8.833781
 31
0.0
  0
LINE
  5
1D1
330
1F
100
AcDbEntity
  8
0
100
AcDbLine
 10
-2.678399
 20
-0.623439
 30
0.0
 11
-2.706611
 21
-0.486575
 31
0.0
  0
LINE
  5
1D2
330
1F
100
AcDbEntity
  8
0
100
AcDbLine
 10
2.706611
 20
0.486575
 30
0.0
 11
2.678399
 21
0.623439
 31
0.0
  0
LINE
  5
1D3
330
1F
100
AcDbEntity
  8
0
100
AcDbLine
 10
-9.945943999999999
 20
-8.899054999999999
 30
0.0
 11
-9.962392
 21
-8.833781
 31
0.0
  0
LINE
  5
1D4
330
1F
100
AcDbEntity
  8
0
100
AcDbLine
 10
9.962392
 20
8.833781
 30
0.0
 11
9.945943999999999
 21
8.899054999999999
 31
0.0
  0
LINE
  5
1D5
330
1F
100
AcDbEntity
  8
0
100
AcDbLine
 10
-2.643271
 20
-0.758694
 30
0.0
 11
-2.678399
 21
-0.623439
 31
0.0
  0
LINE
  5
1D6
330
1F
100
AcDbEntity
  8
0
100
AcDbLine
 10
2.678399
 20
0.623439
 30
0.0
 11
2.643271
 21
0.758694
 31
0.0
  0
LINE
  5
1D7
330
1F
100
AcDbEntity
  8
0
100
AcDbLine
 10
-9.926585
 20
-8.963526
 30
0.0
 11
-9.945943999999999
 21
-8.899054999999999
 31
0.0
  0
LINE
  5
1D8
330
1F
100
AcDbEntity
  8
0
100
AcDbLine
 10
9.945943999999999
 20
8.899054999999999
 30
0.0
 11
9.926585
 21
8.963526
 31
0.0
  0
LINE
  5
1D9
330
1F
100
AcDbEntity
  8
0
100
AcDbLine
 10
-2.601318
 20
-0.89199
 30
0.0
 11
-2.643271
 21
-0.758694
 31
0.0
  0
LINE
  5
1DA
330
1F
100
AcDbEntity
  8
0
100
AcDbLine
 10
2.643271
 20
0.758694
 30
0.0
 11
2.601318
 21
0.89199
 31
0.0
  0
LINE
  5
1DB
330
1F
100
AcDbEntity
  8
0
100
AcDbLine
 10
-9.904352
 20
-9.027061999999999
 30
0.0
 11
-9.926585
 21
-8.963526
 31
0.0
  0
LINE
  5
1DC
330
1F
100
AcDbEntity
  8
0
100
AcDbLine
 10
9.926585
 20
8.963526
 30
0.0
 11
9.904352
 21
9.027061999999999
 31
0.0
  0
LINE
  5
1DD
330
1F
100
AcDbEntity
  8
0
100
AcDbLine
 10
-2.552647
 20
-1.022982
 30
0.0
 11
-2.601318
 21
-0.89199
 31
0.0
  0
LINE
  5
1DE
330
1F
100
AcDbEntity
  8
0
100
AcDbLine
 10
2.601318
 20
0.89199
 30
0.0
 11
2.552647
 21
1.022982
 31
0.0
  0
LINE
  5
1DF
330
1F
100
AcDbEntity
  8
0
100
AcDbLine
 10
-9.879292
 20
-9.089538
 30
0.0
 11
-9.904352
 21
-9.027061999999999
 31
0.0
  0
LINE
  5
1E0
330
1F
100
AcDbEntity
  8
0
100
AcDbLine
 10
9.904352
 20
9.027061999999999
 30
0.0
 11
9.879292
 21
9.089538
 31
0.0
  0
LINE
  5
1E1
330
1F
100
AcDbEntity
  8
0
100
AcDbLine
 10
-2.497385
 20
-1.151333
 30
0.0
 11
-2.552647
 21
-1.022982
 31
0.0
  0
LINE
  5
1E2
330
1F
100
AcDbEntity
  8
0
100
AcDbLine
 10
2.552647
 20
1.022982
 30
0.0
 11
2.497385
 21
1.151333
 31
0.0
  0
LINE
  5
1E3
330
1F
100
AcDbEntity
  8
0
100
AcDbLine
 10
-9.851453
 20
-9.150826
 30
0.0
 11
-9.879292
 21
-9.089538
 31
0.0
  0
LINE
  5
1E4
330
1F
100
AcDbEntity
  8
0
100
AcDbLine
 10
9.879292
 20
9.089538
 30
0.0
 11
9.851453
 21
9.150826
 31
0.0
  0
LINE
  5
1E5
330
1F
100
AcDbEntity
  8
0
100
AcDbLine
 10
-2.435674
 20
-1.276711
 30
0.0
 11
-2.497385
 21
-1.151333
 31
0.0
  0
LINE
  5
1E6
330
1F
100
AcDbEntity
  8
0
100
AcDbLine
 10
2.497385
 20
1.151333
 30
0.0
 11
2.435674
 21
1.276711
 31
0.0
  0
LINE
  5
1E7
330
1F
100
AcDbEntity
  8
0
100
AcDbLine
 10
-9.820893
 20
-9.210803
 30
0.0
 11
-9.851453
 21
-9.150826
 31
0.0
  0
LINE
  5
1E8
330
1F
100
AcDbEntity
  8
0
100
AcDbLine
 10
9.851453
 20
9.150826
 30
0.0
 11
9.820893
 21
9.210803
 31
0.0
  0
LINE
  5
1E9
330
1F
100
AcDbEntity
  8
0
100
AcDbLine
 10
-9.787673
 20
-9.269349
 30
0.0
 11
-9.820893
 21
-9.210803
 31
0.0
  0
LINE
  5
1EA
330
1F
100
AcDbEntity
  8
0
100
AcDbLine
 10
9.820893
 20
9.210803
 30
0.0
 11
9.787673
 21
9.269349
 31
0.0
  0
LINE
  5
1EB
330
1F
100
AcDbEntity
  8
0
100
AcDbLine
 10
4.5
 20
-0.8660249999999999
 30
0.0
 11
4.0
 21
0.0
 31
0.0
  0
LINE
  5
1EC
330
1F
100
AcDbEntity
  8
0
100
AcDbLine
 10
-4.0
 20
0.0
 30
0.0
 11
-4.5
 21
0.8660249999999999
 31
0.0
  0
LINE
  5
1ED
330
1F
100
AcDbEntity
  8
0
100
AcDbLine
 10
-9.751859999999999
 20
-9.326345
 30
0.0
 11
-9.787673
 21
-9.269349
 31
0.0
  0
LINE
  5
1EE
330
1F
100
AcDbEntity
  8
0
100
AcDbLine
 10
9.787673
 20
9.269349
 30
0.0
 11
9.751859999999999
 21
9.326345
 31
0.0
  0
LINE
  5
1EF
330
1F
100
AcDbEntity
  8
0
100
AcDbLine
 10
-2.871411
 20
-2.00125
 30
0.0
 11
-2.947757
 21
-1.886989
 31
0.0
  0
LINE
  5
1F0
330
1F
100
AcDbEntity
  8
0
100
AcDbLine
 10
2.947757
 20
1.886989
 30
0.0
 11
2.871411
 21
2.00125
 31
0.0
  0
LINE
  5
1F1
330
1F
100
AcDbEntity
  8
0
100
AcDbLine
 10
-9.713526
 20
-9.381677999999999
 30
0.0
 11
-9.751859999999999
 21
-9.326345
 31
0.0
  0
LINE
  5
1F2
330
1F
100
AcDbEntity
  8
0
100
AcDbLine
 10
9.751859999999999
 20
9.326345
 30
0.0
 11
9.713526
 21
9.381677999999999
 31
0.0
  0
LINE
  5
1F3
330
1F
100
AcDbEntity
  8
0
100
AcDbLine
 10
-2.790637
 20
-2.112426
 30
0.0
 11
-2.871411
 21
-2.00125
 31
0.0
  0
LINE
  5
1F4
330
1F
100
AcDbEntity
  8
0
100
AcDbLine
 10
2.871411
 20
2.00125
 30
0.0
 11
2.790637
 21
2.112426
 31
0.0
  0
LINE
  5
1F5
330
1F
100
AcDbEntity
  8
0
100
AcDbLine
 10
-9.672748
 20
-9.435234999999999
 30
0.0
 11
-9.713526
 21
-9.381677999999999
 31
0.0
  0
LINE
  5
1F6
330
1F
100
AcDbEntity
  8
0
100
AcDbLine
 10
9.713526
 20
9.381677999999999
 30
0.0
 11
9.672748
 21
9.435234999999999
 31
0.0
  0
LINE
  5
1F7
330
1F
100
AcDbEntity
  8
0
100
AcDbLine
 10
-2.705562
 20
-2.220345
 30
0.0
 11
-2.790637
 21
-2.112426
 31
0.0
  0
LINE
  5
1F8
330
1F
100
AcDbEntity
  8
0
100
AcDbLine
 10
2.790637
 20
2.112426
 30
0.0
 11
2.705562
 21
2.220345
 31
0.0
  0
LINE
  5
1F9
330
1F
100
AcDbEntity
  8
0
100
AcDbLine
 10
-9.629607
 20
-9.486908
 30
0.0
 11
-9.672748
 21
-9.435234999999999
 31
0.0
  0
LINE
  5
1FA
330
1F
100
AcDbEntity
  8
0
100
AcDbLine
 10
9.672748
 20
9.435234999999999
 30
0.0
 11
9.629607
 21
9.486908
 31
0.0
  0
LINE
  5
1FB
330
1F
100
AcDbEntity
  8
0
100
AcDbLine
 10
2.947757
 20
-1.886989
 30
0.0
 11
2.435674
 21
-1.276711
 31
0.0
  0
LINE
  5
1FC
330
1F
100
AcDbEntity
  8
0
100
AcDbLine
 10
-2.435674
 20
1.276711
 30
0.0
 11
-2.947757
 21
1.886989
 31
0.0
  0
LINE
  5
1FD
330
1F
100
AcDbEntity
  8
0
100
AcDbLine
 10
-2.616316
 20
-2.324842
 30
0.0
 11
-2.705562
 21
-2.220345
 31
0.0
  0
LINE
  5
1FE
330
1F
100
AcDbEntity
  8
0
100
AcDbLine
 10
2.705562
 20
2.220345
 30
0.0
 11
2.616316
 21
2.324842
 31
0.0
  0
LINE
  5
1FF
330
1F
100
AcDbEntity
  8
0
100
AcDbLine
 10
-9.584192
 20
-9.536594
 30
0.0
 11
-9.629607
 21
-9.486908
 31
0.0
  0
LINE
  5
200
330
1F
100
AcDbEntity
  8
0
100
AcDbLine
 10
9.629607
 20
9.486908
 30
0.0
 11
9.584192
 21
9.536594
 31
0.0
  0
LINE
  5
201
330
1F
100
AcDbEntity
  8
0
100
AcDbLine
 10
-2.523037
 20
-2.425755
 30
0.0
 11
-2.616316
 21
-2.324842
 31
0.0
  0
LINE
  5
202
330
1F
100
AcDbEntity
  8
0
100
AcDbLine
 10
2.616316
 20
2.324842
 30
0.0
 11
2.523037
 21
2.425755
 31
0.0
  0
LINE
  5
203
330
1F
100
AcDbEntity
  8
0
100
AcDbLine
 10
-2.425868
 20
-2.522928
 30
0.0
 11
-2.523037
 21
-2.425755
 31
0.0
  0
LINE
  5
204
330
1F
100
AcDbEntity
  8
0
100
AcDbLine
 10
2.523037
 20
2.425755
 30
0.0
 11
2.425868
 21
2.522928
 31
0.0
  0
LINE
  5
205
330
1F
100
AcDbEntity
  8
0
100
AcDbLine
 10
-9.536594
 20
-9.584192
 30
0.0
 11
-9.584192
 21
-9.536594
 31
0.0
  0
LINE
  5
206
330
1F
100
AcDbEntity
  8
0
100
AcDbLine
 10
7.060659999999999
 20
-6.0
 30
0.0
 11
4.5
 21
-3.43934
 31
0.0
  0
LINE
  5
207
330
1F
100
AcDbEntity
  8
0
100
AcDbLine
 10
-4.5
 20
3.43934
 30
0.0
 11
-7.060659999999999
 21
6.0
 31
0.0
  0
LINE
  5
208
330
1F
100
AcDbEntity
  8
0
100
AcDbLine
 10
6.0
 20
-7.060659999999999
 30
0.0
 11
3.43934
 21
-4.5
 31
0.0
  0
LINE
  5
209
330
1F
100
AcDbEntity
  8
0
100
AcDbLine
 10
-3.43934
 20
4.5
 30
0.0
 11
-6.0
 21
7.060659999999999
 31
0.0
  0
LINE
  5
20A
330
1F
100
AcDbEntity
  8
0
100
AcDbLine
 10
9.584192
 20
9.536594
 30
0.0
 11
9.536594
 21
9.584192
 31
0.0
  0
LINE
  5
20B
330
1F
100
AcDbEntity
  8
0
100
AcDbLine
 10
-2.32496
 20
-2.616212
 30
0.0
 11
-2.425868
 21
-2.522928
 31
0.0
  0
LINE
  5
20C
330
1F
100
AcDbEntity
  8
0
100
AcDbLine
 10
2.425868
 20
2.522928
 30
0.0
 11
2.32496
 21
2.616212
 31
0.0
  0
LINE
  5
20D
330
1F
100
AcDbEntity
  8
0
100
AcDbLine
 10
-9.486908
 20
-9.629607
 30
0.0
 11
-9.536594
 21
-9.584192
 31
0.0
  0
LINE
  5
20E
330
1F
100
AcDbEntity
  8
0
100
AcDbLine
 10
9.536594
 20
9.584192
 30
0.0
 11
9.486908
 21
9.629607
 31
0.0
  0
LINE
  5
20F
330
1F
100
AcDbEntity
  8
0
100
AcDbLine
 10
-2.220467
 20
-2.705462
 30
0.0
 11
-2.32496
 21
-2.616212
 31
0.0
  0
LINE
  5
210
330
1F
100
AcDbEntity
  8
0
100
AcDbLine
 10
2.32496
 20
2.616212
 30
0.0
 11
2.220467
 21
2.705462
 31
0.0
  0
LINE
  5
211
330
1F
100
AcDbEntity
  8
0
100
AcDbLine
 10
1.887121
 20
-2.947673
 30
0.0
 11
1.276855
 21
-2.435599
 31
0.0
  0
LINE
  5
212
330
1F
100
AcDbEntity
  8
0
100
AcDbLine
 10
-1.276855
 20
2.435599
 30
0.0
 11
-1.887121
 21
2.947673
 31
0.0
  0
LINE
  5
213
330
1F
100
AcDbEntity
  8
0
100
AcDbLine
 10
-9.435234999999999
 20
-9.672748
 30
0.0
 11
-9.486908
 21
-9.629607
 31
0.0
  0
LINE
  5
214
330
1F
100
AcDbEntity
  8
0
100
AcDbLine
 10
9.486908
 20
9.629607
 30
0.0
 11
9.435234999999999
 21
9.672748
 31
0.0
  0
LINE
  5
215
330
1F
100
AcDbEntity
  8
0
100
AcDbLine
 10
-2.112551
 20
-2.790543
 30
0.0
 11
-2.220467
 21
-2.705462
 31
0.0
  0
LINE
  5
216
330
1F
100
AcDbEntity
  8
0
100
AcDbLine
 10
2.220467
 20
2.705462
 30
0.0
 11
2.112551
 21
2.790543
 31
0.0
  0
LINE
  5
217
330
1F
100
AcDbEntity
  8
0
100
AcDbLine
 10
-9.381677999999999
 20
-9.713526
 30
0.0
 11
-9.435234999999999
 21
-9.672748
 31
0.0
  0
LINE
  5
218
330
1F
100
AcDbEntity
  8
0
100
AcDbLine
 10
9.435234999999999
 20
9.672748
 30
0.0
 11
9.381677999999999
 21
9.713526
 31
0.0
  0
LINE
  5
219
330
1F
100
AcDbEntity
  8
0
100
AcDbLine
 10
-2.001379
 20
-2.871321
 30
0.0
 11
-2.112551
 21
-2.790543
 31
0.0
  0
LINE
  5
21A
330
1F
100
AcDbEntity
  8
0
100
AcDbLine
 10
2.112551
 20
2.790543
 30
0.0
 11
2.001379
 21
2.871321
 31
0.0
  0
LINE
  5
21B
330
1F
100
AcDbEntity
  8
0
100
AcDbLine
 10
-9.326345
 20
-9.751859999999999
 30
0.0
 11
-9.381677999999999
 21
-9.713526
 31
0.0
  0
LINE
  5
21C
330
1F
100
AcDbEntity
  8
0
100
AcDbLine
 10
9.381677999999999
 20
9.713526
 30
0.0
 11
9.326345
 21
9.751859999999999
 31
0.0
  0
LINE
  5
21D
330
1F
100
AcDbEntity
  8
0
100
AcDbLine
 10
-1.887121
 20
-2.947673
 30
0.0
 11
-2.001379
 21
-2.871321
 31
0.0
  0
LINE
  5
21E
330
1F
100
AcDbEntity
  8
0
100
AcDbLine
 10
2.001379
 20
2.871321
 30
0.0
 11
1.887121
 21
2.947673
 31
0.0
  0
LINE
  5
21F
330
1F
100
AcDbEntity
  8
0
100
AcDbLine
 10
-9.269349
 20
-9.787673
 30
0.0
 11
-9.326345
 21
-9.751859999999999
 31
0.0
  0
LINE
  5
220
330
1F
100
AcDbEntity
  8
0
100
AcDbLine
 10
9.326345
 20
9.751859999999999
 30
0.0
 11
9.269349
 21
9.787673
 31
0.0
  0
LINE
  5
221
330
1F
100
AcDbEntity
  8
0
100
AcDbLine
 10
0.8660249999999999
 20
-4.5
 30
0.0
 11
0.0
 21
-4.0
 31
0.0
  0
LINE
  5
222
330
1F
100
AcDbEntity
  8
0
100
AcDbLine
 10
0.0
 20
4.0
 30
0.0
 11
-0.8660249999999999
 21
4.5
 31
0.0
  0
LINE
  5
223
330
1F
100
AcDbEntity
  8
0
100
AcDbLine
 10
-9.210803
 20
-9.820893
 30
0.0
 11
-9.269349
 21
-9.787673
 31
0.0
  0
LINE
  5
224
330
1F
100
AcDbEntity
  8
0
100
AcDbLine
 10
9.269349
 20
9.787673
 30
0.0
 11
9.210803
 21
9.820893
 31
0.0
  0
LINE
  5
225
330
1F
100
AcDbEntity
  8
0
100
AcDbLine
 10
-9.150826
 20
-9.851453
 30
0.0
 11
-9.210803
 21
-9.820893
 31
0.0
  0
LINE
  5
226
330
1F
100
AcDbEntity
  8
0
100
AcDbLine
 10
9.210803
 20
9.820893
 30
0.0
 11
9.150826
 21
9.851453
 31
0.0
  0
LINE
  5
227
330
1F
100
AcDbEntity
  8
0
100
AcDbLine
 10
-1.151465
 20
-2.497324
 30
0.0
 11
-1.276855
 21
-2.435599
 31
0.0
  0
LINE
  5
228
330
1F
100
AcDbEntity
  8
0
100
AcDbLine
 10
1.276855
 20
2.435599
 30
0.0
 11
1.151465
 21
2.497324
 31
0.0
  0
LINE
  5
229
330
1F
100
AcDbEntity
  8
0
100
AcDbLine
 10
-9.089538
 20
-9.879292
 30
0.0
 11
-9.150826
 21
-9.851453
 31
0.0
  0
LINE
  5
22A
330
1F
100
AcDbEntity
  8
0
100
AcDbLine
 10
9.150826
 20
9.851453
 30
0.0
 11
9.089538
 21
9.879292
 31
0.0
  0
LINE
  5
22B
330
1F
100
AcDbEntity
  8
0
100
AcDbLine
 10
-1.023101
 20
-2.552599
 30
0.0
 11
-1.151465
 21
-2.497324
 31
0.0
  0
LINE
  5
22C
330
1F
100
AcDbEntity
  8
0
100
AcDbLine
 10
1.151465
 20
2.497324
 30
0.0
 11
1.023101
 21
2.552599
 31
0.0
  0
LINE
  5
22D
330
1F
100
AcDbEntity
  8
0
100
AcDbLine
 10
-9.027061999999999
 20
-9.904352
 30
0.0
 11
-9.089538
 21
-9.879292
 31
0.0
  0
LINE
  5
22E
330
1F
100
AcDbEntity
  8
0
100
AcDbLine
 10
9.089538
 20
9.879292
 30
0.0
 11
9.027061999999999
 21
9.904352
 31
0.0
  0
LINE
  5
22F
330
1F
100
AcDbEntity
  8
0
100
AcDbLine
 10
-0.892095
 20
-2.601282
 30
0.0
 11
-1.023101
 21
-2.552599
 31
0.0
  0
LINE
  5
230
330
1F
100
AcDbEntity
  8
0
100
AcDbLine
 10
1.023101
 20
2.552599
 30
0.0
 11
0.892095
 21
2.601282
 31
0.0
  0
LINE
  5
231
330
1F
100
AcDbEntity
  8
0
100
AcDbLine
 10
-8.963526
 20
-9.926585
 30
0.0
 11
-9.027061999999999
 21
-9.904352
 31
0.0
  0
LINE
  5
232
330
1F
100
AcDbEntity
  8
0
100
AcDbLine
 10
9.027061999999999
 20
9.904352
 30
0.0
 11
8.963526
 21
9.926585
 31
0.0
  0
LINE
  5
233
330
1F
100
AcDbEntity
  8
0
100
AcDbLine
 10
-0.7587849999999999
 20
-2.643245
 30
0.0
 11
-0.892095
 21
-2.601282
 31
0.0
  0
LINE
  5
234
330
1F
100
AcDbEntity
  8
0
100
AcDbLine
 10
0.892095
 20
2.601282
 30
0.0
 11
0.7587849999999999
 21
2.643245
 31
0.0
  0
LINE
  5
235
330
1F
100
AcDbEntity
  8
0
100
AcDbLine
 10
-8.899054999999999
 20
-9.945943999999999
 30
0.0
 11
-8.963526
 21
-9.926585
 31
0.0
  0
LINE
  5
236
330
1F
100
AcDbEntity
  8
0
100
AcDbLine
 10
8.963526
 20
9.926585
 30
0.0
 11
8.899054999999999
 21
9.945943999999999
 31
0.0
  0
LINE
  5
237
330
1F
100
AcDbEntity
  8
0
100
AcDbLine
 10
-0.623514
 20
-2.678382
 30
0.0
 11
-0.7587849999999999
 21
-2.643245
 31
0.0
  0
LINE
  5
238
330
1F
100
AcDbEntity
  8
0
100
AcDbLine
 10
0.7587849999999999
 20
2.643245
 30
0.0
 11
0.623514
 21
2.678382
 31
0.0
  0
LINE
  5
239
330
1F
100
AcDbEntity
  8
0
100
AcDbLine
 10
-8.833781
 20
-9.962392
 30
0.0
 11
-8.899054999999999
 21
-9.945943999999999
 31
0.0
  0
LINE
  5
23A
330
1F
100
AcDbEntity
  8
0
100
AcDbLine
 10
8.899054999999999
 20
9.945943999999999
 30
0.0
 11
8.833781
 21
9.962392
 31
0.0
  0
LINE
  5
23B
330
1F
100
AcDbEntity
  8
0
100
AcDbLine
 10
-0.486634
 20
-2.706601
 30
0.0
 11
-0.623514
 21
-2.678382
 31
0.0
  0
LINE
  5
23C
330
1F
100
AcDbEntity
  8
0
100
AcDbLine
 10
0.623514
 20
2.678382
 30
0.0
 11
0.486634
 21
2.706601
 31
0.0
  0
LINE
  5
23D
330
1F
100
AcDbEntity
  8
0
100
AcDbLine
 10
-8.767835999999999
 20
-9.975894
 30
0.0
 11
-8.833781
 21
-9.962392
 31
0.0
  0
LINE
  5
23E
330
1F
100
AcDbEntity
  8
0
100
AcDbLine
 10
8.833781
 20
9.962392
 30
0.0
 11
8.767835999999999
 21
9.975894
 31
0.0
  0
LINE
  5
23F
330
1F
100
AcDbEntity
  8
0
100
AcDbLine
 10
-8.70135
 20
-9.986424
 30
0.0
 11
-8.767835999999999
 21
-9.975894
 31
0.0
  0
LINE
  5
240
330
1F
100
AcDbEntity
  8
0
100
AcDbLine
 10
8.767835999999999
 20
9.975894
 30
0.0
 11
8.70135
 21
9.986424
 31
0.0
  0
LINE
  5
241
330
1F
100
AcDbEntity
  8
0
100
AcDbLine
 10
-0.348496
 20
-2.727829
 30
0.0
 11
-0.486634
 21
-2.706601
 31
0.0
  0
LINE
  5
242
330
1F
100
AcDbEntity
  8
0
100
AcDbLine
 10
0.486634
 20
2.706601
 30
0.0
 11
0.348496
 21
2.727829
 31
0.0
  0
LINE
  5
243
330
1F
100
AcDbEntity
  8
0
100
AcDbLine
 10
-8.634459
 20
-9.993960999999999
 30
0.0
 11
-8.70135
 21
-9.986424
 31
0.0
  0
LINE
  5
244
330
1F
100
AcDbEntity
  8
0
100
AcDbLine
 10
8.70135
 20
9.986424
 30
0.0
 11
8.634459
 21
9.993960999999999
 31
0.0
  0
LINE
  5
245
330
1F
100
AcDbEntity
  8
0
100
AcDbLine
 10
-0.209458
 20
-2.742012
 30
0.0
 11
-0.348496
 21
-2.727829
 31
0.0
  0
LINE
  5
246
330
1F
100
AcDbEntity
  8
0
100
AcDbLine
 10
0.348496
 20
2.727829
 30
0.0
 11
0.209458
 21
2.742012
 31
0.0
  0
LINE
  5
247
330
1F
100
AcDbEntity
  8
0
100
AcDbLine
 10
-8.567297
 20
-9.998489
 30
0.0
 11
-8.634459
 21
-9.993960999999999
 31
0.0
  0
LINE
  5
248
330
1F
100
AcDbEntity
  8
0
100
AcDbLine
 10
8.634459
 20
9.993960999999999
 30
0.0
 11
8.567297
 21
9.998489
 31
0.0
  0
LINE
  5
249
330
1F
100
AcDbEntity
  8
0
100
AcDbLine
 10
-0.06988
 20
-2.749112
 30
0.0
 11
-0.209458
 21
-2.742012
 31
0.0
  0
LINE
  5
24A
330
1F
100
AcDbEntity
  8
0
100
AcDbLine
 10
0.209458
 20
2.742012
 30
0.0
 11
0.06988
 21
2.749112
 31
0.0
  0
LINE
  5
24B
330
1F
100
AcDbEntity
  8
0
100
AcDbLine
 10
-8.5
 20
-10.0
 30
0.0
 11
-8.567297
 21
-9.998489
 31
0.0
  0
LINE
  5
24C
330
1F
100
AcDbEntity
  8
0
100
AcDbLine
 10
8.567297
 20
9.998489
 30
0.0
 11
8.5
 21
10.0
 31
0.0
  0
LINE
  5
24D
330
1F
100
AcDbEntity
  8
0
100
AcDbLine
 10
-8.5
 20
-10.0
 30
0.0
 11
-3.5
 21
-10.0
 31
0.0
  0
LINE
  5
24E
330
1F
100
AcDbEntity
  8
0
100
AcDbLine
 10
3.5
 20
-10.0
 30
0.0
 11
8.5
 21
-10.0
 31
0.0
  0
LINE
  5
24F
330
1F
100
AcDbEntity
  8
0
100
AcDbLine
 10
-3.5
 20
-9.5
 30
0.0
 11
-3.0
 21
-9.5
 31
0.0
  0
LINE
  5
250
330
1F
100
AcDbEntity
  8
0
100
AcDbLine
 10
3.0
 20
-9.5
 30
0.0
 11
3.5
 21
-9.5
 31
0.0
  0
LINE
  5
251
330
1F
100
AcDbEntity
  8
0
100
AcDbLine
 10
-6.0
 20
-8.5
 30
0.0
 11
-3.0
 21
-8.5
 31
0.0
  0
LINE
  5
252
330
1F
100
AcDbEntity
  8
0
100
AcDbLine
 10
3.0
 20
-8.5
 30
0.0
 11
6.0
 21
-8.5
 31
0.0
  0
LINE
  5
253
330
1F
100
AcDbEntity
  8
0
100
AcDbLine
 10
-8.5
 20
-6.0
 30
0.0
 11
-7.060659999999999
 21
-6.0
 31
0.0
  0
LINE
  5
254
330
1F
100
AcDbEntity
  8
0
100
AcDbLine
 10
7.060659999999999
 20
-6.0
 30
0.0
 11
8.5
 21
-6.0
 31
0.0
  0
LINE
  5
255
330
1F
100
AcDbEntity
  8
0
100
AcDbLine
 10
-3.43934
 20
-4.5
 30
0.0
 11
-0.8660249999999999
 21
-4.5
 31
0.0
  0
LINE
  5
256
330
1F
100
AcDbEntity
  8
0
100
AcDbLine
 10
0.8660249999999999
 20
-4.5
 30
0.0
 11
3.43934
 21
-4.5
 31
0.0
  0
LINE
  5
257
330
1F
100
AcDbEntity
  8
0
100
AcDbLine
 10
-10.0
 20
-3.5
 30
0.0
 11
-9.5
 21
-3.5
 31
0.0
  0
LINE
  5
258
330
1F
100
AcDbEntity
  8
0
100
AcDbLine
 10
9.5
 20
-3.5
 30
0.0
 11
10.0
 21
-3.5
 31
0.0
  0
LINE
  5
259
330
1F
100
AcDbEntity
  8
0
100
AcDbLine
 10
-9.5
 20
-3.0
 30
0.0
 11
-8.5
 21
-3.0
 31
0.0
  0
LINE
  5
25A
330
1F
100
AcDbEntity
  8
0
100
AcDbLine
 10
8.5
 20
-3.0
 30
0.0
 11
9.5
 21
-3.0
 31
0.0
  0
LINE
  5
25B
330
1F
100
AcDbEntity
  8
0
100
AcDbLine
 10
-0.06988
 20
-2.749112
 30
0.0
 11
0.06988
 21
-2.749112
 31
0.0
  0
LINE
  5
25C
330
1F
100
AcDbEntity
  8
0
100
AcDbLine
 10
-0.06988
 20
2.749112
 30
0.0
 11
0.06988
 21
2.749112
 31
0.0
  0
LINE
  5
25D
330
1F
100
AcDbEntity
  8
0
100
AcDbLine
 10
8.5
 20
3.0
 30
0.0
 11
9.5
 21
3.0
 31
0.0
  0
LINE
  5
25E
330
1F
100
AcDbEntity
  8
0
100
AcDbLine
 10
-9.5
 20
3.0
 30
0.0
 11
-8.5
 21
3.0
 31
0.0
  0
LINE
  5
25F
330
1F
100
AcDbEntity
  8
0
100
AcDbLine
 10
9.5
 20
3.5
 30
0.0
 11
10.0
 21
3.5
 31
0.0
  0
LINE
  5
260
330
1F
100
AcDbEntity
  8
0
100
AcDbLine
 10
-10.0
 20
3.5
 30
0.0
 11
-9.5
 21
3.5
 31
0.0
  0
LINE
  5
261
330
1F
100
AcDbEntity
  8
0
100
AcDbLine
 10
0.8660249999999999
 20
4.5
 30
0.0
 11
3.43934
 21
4.5
 31
0.0
  0
LINE
  5
262
330
1F
100
AcDbEntity
  8
0
100
AcDbLine
 10
-3.43934
 20
4.5
 30
0.0
 11
-0.8660249999999999
 21
4.5
 31
0.0
  0
LINE
  5
263
330
1F
100
AcDbEntity
  8
0
100
AcDbLine
 10
7.060659999999999
 20
6.0
 30
0.0
 11
8.5
 21
6.0
 31
0.0
  0
LINE
  5
264
330
1F
100
AcDbEntity
  8
0
100
AcDbLine
 10
-8.5
 20
6.0
 30
0.0
 11
-7.060659999999999
 21
6.0
 31
0.0
  0
LINE
  5
265
330
1F
100
AcDbEntity
  8
0
100
AcDbLine
 10
3.0
 20
8.5
 30
0.0
 11
6.0
 21
8.5
 31
0.0
  0
LINE
  5
266
330
1F
100
AcDbEntity
  8
0
100
AcDbLine
 10
-6.0
 20
8.5
 30
0.0
 11
-3.0
 21
8.5
 31
0.0
  0
LINE
  5
267
330
1F
100
AcDbEntity
  8
0
100
AcDbLine
 10
3.0
 20
9.5
 30
0.0
 11
3.5
 21
9.5
 31
0.0
  0
LINE
  5
268
330
1F
100
AcDbEntity
  8
0
100
AcDbLine
 10
-3.5
 20
9.5
 30
0.0
 11
-3.0
 21
9.5
 31
0.0
  0
LINE
  5
269
330
1F
100
AcDbEntity
  8
0
100
AcDbLine
 10
3.5
 20
10.0
 30
0.0
 11
8.5
 21
10.0
 31
0.0
  0
LINE
  5
26A
330
1F
100
AcDbEntity
  8
0
100
AcDbLine
 10
-8.5
 20
10.0
 30
0.0
 11
-3.5
 21
10.0
 31
0.0
  0
LINE
  5
26B
330
1F
100
AcDbEntity
  8
0
100
AcDbLine
 10
8.5
 20
-10.0
 30
0.0
 11
8.567297
 21
-9.998489
 31
0.0
  0
LINE
  5
26C
330
1F
100
AcDbEntity
  8
0
100
AcDbLine
 10
-8.567297
 20
9.998489
 30
0.0
 11
-8.5
 21
10.0
 31
0.0
  0
LINE
  5
26D
330
1F
100
AcDbEntity
  8
0
100
AcDbLine
 10
0.06988
 20
-2.749112
 30
0.0
 11
0.209458
 21
-2.742012
 31
0.0
  0
LINE
  5
26E
330
1F
100
AcDbEntity
  8
0
100
AcDbLine
 10
-0.209458
 20
2.742012
 30
0.0
 11
-0.06988
 21
2.749112
 31
0.0
  0
LINE
  5
26F
330
1F
100
AcDbEntity
  8
0
100
AcDbLine
 10
8.567297
 20
-9.998489
 30
0.0
 11
8.634459
 21
-9.993960999999999
 31
0.0
  0
LINE
  5
270
330
1F
100
AcDbEntity
  8
0
100
AcDbLine
 10
-8.634459
 20
9.993960999999999
 30
0.0
 11
-8.567297
 21
9.998489
 31
0.0
  0
LINE
  5
271
330
1F
100
AcDbEntity
  8
0
100
AcDbLine
 10
0.209458
 20
-2.742012
 30
0.0
 11
0.348496
 21
-2.727829
 31
0.0
  0
LINE
  5
272
330
1F
100
AcDbEntity
  8
0
100
AcDbLine
 10
-0.348496
 20
2.727829
 30
0.0
 11
-0.209458
 21
2.742012
 31
0.0
  0
LINE
  5
273
330
1F
100
AcDbEntity
  8
0
100
AcDbLine
 10
8.634459
 20
-9.993960999999999
 30
0.0
 11
8.70135
 21
-9.986424
 31
0.0
  0
LINE
  5
274
330
1F
100
AcDbEntity
  8
0
100
AcDbLine
 10
-8.70135
 20
9.986424
 30
0.0
 11
-8.634459
 21
9.993960999999999
 31
0.0
  0
LINE
  5
275
330
1F
100
AcDbEntity
  8
0
100
AcDbLine
 10
0.348496
 20
-2.727829
 30
0.0
 11
0.486634
 21
-2.706601
 31
0.0
  0
LINE
  5
276
330
1F
100
AcDbEntity
  8
0
100
AcDbLine
 10
-0.486634
 20
2.706601
 30
0.0
 11
-0.348496
 21
2.727829
 31
0.0
  0
LINE
  5
277
330
1F
100
AcDbEntity
  8
0
100
AcDbLine
 10
8.70135
 20
-9.986424
 30
0.0
 11
8.767835999999999
 21
-9.975894
 31
0.0
  0
LINE
  5
278
330
1F
100
AcDbEntity
  8
0
100
AcDbLine
 10
-8.767835999999999
 20
9.975894
 30
0.0
 11
-8.70135
 21
9.986424
 31
0.0
  0
LINE
  5
279
330
1F
100
AcDbEntity
  8
0
100
AcDbLine
 10
8.767835999999999
 20
-9.975894
 30
0.0
 11
8.833781
 21
-9.962392
 31
0.0
  0
LINE
  5
27A
330
1F
100
AcDbEntity
  8
0
100
AcDbLine
 10
-8.833781
 20
9.962392
 30
0.0
 11
-8.767835999999999
 21
9.975894
 31
0.0
  0
LINE
  5
27B
330
1F
100
AcDbEntity
  8
0
100
AcDbLine
 10
0.486634
 20
-2.706601
 30
0.0
 11
0.623514
 21
-2.678382
 31
0.0
  0
LINE
  5
27C
330
1F
100
AcDbEntity
  8
0
100
AcDbLine
 10
-0.623514
 20
2.678382
 30
0.0
 11
-0.486634
 21
2.706601
 31
0.0
  0
LINE
  5
27D
330
1F
100
AcDbEntity
  8
0
100
AcDbLine
 10
8.833781
 20
-9.962392
 30
0.0
 11
8.899054999999999
 21
-9.945943999999999
 31
0.0
  0
LINE
  5
27E
330
1F
100
AcDbEntity
  8
0
100
AcDbLine
 10
-8.899054999999999
 20
9.945943999999999
 30
0.0
 11
-8.833781
 21
9.962392
 31
0.0
  0
LINE
  5
27F
330
1F
100
AcDbEntity
  8
0
100
AcDbLine
 10
0.623514
 20
-2.678382
 30
0.0
 11
0.7587849999999999
 21
-2.643245
 31
0.0
  0
LINE
  5
280
330
1F
100
AcDbEntity
  8
0
100
AcDbLine
 10
-0.7587849999999999
 20
2.643245
 30
0.0
 11
-0.623514
 21
2.678382
 31
0.0
  0
LINE
  5
281
330
1F
100
AcDbEntity
  8
0
100
AcDbLine
 10
8.899054999999999
 20
-9.945943999999999
 30
0.0
 11
8.963526
 21
-9.926585
 31
0.0
  0
LINE
  5
282
330
1F
100
AcDbEntity
  8
0
100
AcDbLine
 10
-8.963526
 20
9.926585
 30
0.0
 11
-8.899054999999999
 21
9.945943999999999
 31
0.0
  0
LINE
  5
283
330
1F
100
AcDbEntity
  8
0
100
AcDbLine
 10
0.7587849999999999
 20
-2.643245
 30
0.0
 11
0.892095
 21
-2.601282
 31
0.0
  0
LINE
  5
284
330
1F
100
AcDbEntity
  8
0
100
AcDbLine
 10
-0.892095
 20
2.601282
 30
0.0
 11
-0.7587849999999999
 21
2.643245
 31
0.0
  0
LINE
  5
285
330
1F
100
AcDbEntity
  8
0
100
AcDbLine
 10
8.963526
 20
-9.926585
 30
0.0
 11
9.027061999999999
 21
-9.904352
 31
0.0
  0
LINE
  5
286
330
1F
100
AcDbEntity
  8
0
100
AcDbLine
 10
-9.027061999999999
 20
9.904352
 30
0.0
 11
-8.963526
 21
9.926585
 31
0.0
  0
LINE
  5
287
330
1F
100
AcDbEntity
  8
0
100
AcDbLine
 10
0.892095
 20
-2.601282
 30
0.0
 11
1.023101
 21
-2.552599
 31
0.0
  0
LINE
  5
288
330
1F
100
AcDbEntity
  8
0
100
AcDbLine
 10
-1.023101
 20
2.552599
 30
0.0
 11
-0.892095
 21
2.601282
 31
0.0
  0
LINE
  5
289
330
1F
100
AcDbEntity
  8
0
100
AcDbLine
 10
9.027061999999999
 20
-9.904352
 30
0.0
 11
9.089538
 21
-9.879292
 31
0.0
  0
LINE
  5
28A
330
1F
100
AcDbEntity
  8
0
100
AcDbLine
 10
-9.089538
 20
9.879292
 30
0.0
 11
-9.027061999999999
 21
9.904352
 31
0.0
  0
LINE
  5
28B
330
1F
100
AcDbEntity
  8
0
100
AcDbLine
 10
1.023101
 20
-2.552599
 30
0.0
 11
1.151465
 21
-2.497324
 31
0.0
  0
LINE
  5
28C
330
1F
100
AcDbEntity
  8
0
100
AcDbLine
 10
-1.151465
 20
2.497324
 30
0.0
 11
-1.023101
 21
2.552599
 31
0.0
  0
LINE
  5
28D
330
1F
100
AcDbEntity
  8
0
100
AcDbLine
 10
9.089538
 20
-9.879292
 30
0.0
 11
9.150826
 21
-9.851453
 31
0.0
  0
LINE
  5
28E
330
1F
100
AcDbEntity
  8
0
100
AcDbLine
 10
-9.150826
 20
9.851453
 30
0.0
 11
-9.089538
 21
9.879292
 31
0.0
  0
LINE
  5
28F
330
1F
100
AcDbEntity
  8
0
100
AcDbLine
 10
1.151465
 20
-2.497324
 30
0.0
 11
1.276855
 21
-2.435599
 31
0.0
  0
LINE
  5
290
330
1F
100
AcDbEntity
  8
0
100
AcDbLine
 10
-1.276855
 20
2.435599
 30
0.0
 11
-1.151465
 21
2.497324
 31
0.0
  0
LINE
  5
291
330
1F
100
AcDbEntity
  8
0
100
AcDbLine
 10
9.150826
 20
-9.851453
 30
0.0
 11
9.210803
 21
-9.820893
 31
0.0
  0
LINE
  5
292
330
1F
100
AcDbEntity
  8
0
100
AcDbLine
 10
-9.210803
 20
9.820893
 30
0.0
 11
-9.150826
 21
9.851453
 31
0.0
  0
LINE
  5
293
330
1F
100
AcDbEntity
  8
0
100
AcDbLine
 10
9.210803
 20
-9.820893
 30
0.0
 11
9.269349
 21
-9.787673
 31
0.0
  0
LINE
  5
294
330
1F
100
AcDbEntity
  8
0
100
AcDbLine
 10
-9.269349
 20
9.787673
 30
0.0
 11
-9.210803
 21
9.820893
 31
0.0
  0
LINE
  5
295
330
1F
100
AcDbEntity
  8
0
100
AcDbLine
 10
-0.8660249999999999
 20
-4.5
 30
0.0
 11
0.0
 21
-4.0
 31
0.0
  0
LINE
  5
296
330
1F
100
AcDbEntity
  8
0
100
AcDbLine
 10
0.0
 20
4.0
 30
0.0
 11
0.8660249999999999
 21
4.5
 31
0.0
  0
LINE
  5
297
330
1F
100
AcDbEntity
  8
0
100
AcDbLine
 10
9.269349
 20
-9.787673
 30
0.0
 11
9.326345
 21
-9.751859999999999
 31
0.0
  0
LINE
  5
298
330
1F
100
AcDbEntity
  8
0
100
AcDbLine
 10
-9.326345
 20
9.751859999999999
 30
0.0
 11
-9.269349
 21
9.787673
 31
0.0
  0
LINE
  5
299
330
1F
100
AcDbEntity
  8
0
100
AcDbLine
 10
1.887121
 20
-2.947673
 30
0.0
 11
2.001379
 21
-2.871321
 31
0.0
  0
LINE
  5
29A
330
1F
100
AcDbEntity
  8
0
100
AcDbLine
 10
-2.001379
 20
2.871321
 30
0.0
 11
-1.887121
 21
2.947673
 31
0.0
  0
LINE
  5
29B
330
1F
100
AcDbEntity
  8
0
100
AcDbLine
 10
9.326345
 20
-9.751859999999999
 30
0.0
 11
9.381677999999999
 21
-9.713526
 31
0.0
  0
LINE
  5
29C
330
1F
100
AcDbEntity
  8
0
100
AcDbLine
 10
-9.381677999999999
 20
9.713526
 30
0.0
 11
-9.326345
 21
9.751859999999999
 31
0.0
  0
LINE
  5
29D
330
1F
100
AcDbEntity
  8
0
100
AcDbLine
 10
2.001379
 20
-2.871321
 30
0.0
 11
2.112551
 21
-2.790543
 31
0.0
  0
LINE
  5
29E
330
1F
100
AcDbEntity
  8
0
100
AcDbLine
 10
-2.112551
 20
2.790543
 30
0.0
 11
-2.001379
 21
2.871321
 31
0.0
  0
LINE
  5
29F
330
1F
100
AcDbEntity
  8
0
100
AcDbLine
 10
9.381677999999999
 20
-9.713526
 30
0.0
 11
9.435234999999999
 21
-9.672748
 31
0.0
  0
LINE
  5
2A0
330
1F
100
AcDbEntity
  8
0
100
AcDbLine
 10
-9.435234999999999
 20
9.672748
 30
0.0
 11
-9.381677999999999
 21
9.713526
 31
0.0
  0
LINE
  5
2A1
330
1F
100
AcDbEntity
  8
0
100
AcDbLine
 10
2.112551
 20
-2.790543
 30
0.0
 11
2.220467
 21
-2.705462
 31
0.0
  0
LINE
  5
2A2
330
1F
100
AcDbEntity
  8
0
100
AcDbLine
 10
-2.220467
 20
2.705462
 30
0.0
 11
-2.112551
 21
2.790543
 31
0.0
  0
LINE
  5
2A3
330
1F
100
AcDbEntity
  8
0
100
AcDbLine
 10
9.435234999999999
 20
-9.672748
 30
0.0
 11
9.486908
 21
-9.629607
 31
0.0
  0
LINE
  5
2A4
330
1F
100
AcDbEntity
  8
0
100
AcDbLine
 10
-9.486908
 20
9.629607
 30
0.0
 11
-9.435234999999999
 21
9.672748
 31
0.0
  0
LINE
  5
2A5
330
1F
100
AcDbEntity
  8
0
100
AcDbLine
 10
-1.887121
 20
-2.947673
 30
0.0
 11
-1.276855
 21
-2.435599
 31
0.0
  0
LINE
  5
2A6
330
1F
100
AcDbEntity
  8
0
100
AcDbLine
 10
1.276855
 20
2.435599
 30
0.0
 11
1.887121
 21
2.947673
 31
0.0
  0
LINE
  5
2A7
330
1F
100
AcDbEntity
  8
0
100
AcDbLine
 10
2.220467
 20
-2.705462
 30
0.0
 11
2.32496
 21
-2.616212
 31
0.0
  0
LINE
  5
2A8
330
1F
100
AcDbEntity
  8
0
100
AcDbLine
 10
-2.32496
 20
2.616212
 30
0.0
 11
-2.220467
 21
2.705462
 31
0.0
  0
LINE
  5
2A9
330
1F
100
AcDbEntity
  8
0
100
AcDbLine
 10
9.486908
 20
-9.629607
 30
0.0
 11
9.536594
 21
-9.584192
 31
0.0
  0
LINE
  5
2AA
330
1F
100
AcDbEntity
  8
0
100
AcDbLine
 10
-9.536594
 20
9.584192
 30
0.0
 11
-9.486908
 21
9.629607
 31
0.0
  0
LINE
  5
2AB
330
1F
100
AcDbEntity
  8
0
100
AcDbLine
 10
2.32496
 20
-2.616212
 30
0.0
 11
2.425868
 21
-2.522928
 31
0.0
  0
LINE
  5
2AC
330
1F
100
AcDbEntity
  8
0
100
AcDbLine
 10
-2.425868
 20
2.522928
 30
0.0
 11
-2.32496
 21
2.616212
 31
0.0
  0
LINE
  5
2AD
330
1F
100
AcDbEntity
  8
0
100
AcDbLine
 10
9.536594
 20
-9.584192
 30
0.0
 11
9.584192
 21
-9.536594
 31
0.0
  0
LINE
  5
2AE
330
1F
100
AcDbEntity
  8
0
100
AcDbLine
 10
-7.060659999999999
 20
-6.0
 30
0.0
 11
-4.5
 21
-3.43934
 31
0.0
  0
LINE
  5
2AF
330
1F
100
AcDbEntity
  8
0
100
AcDbLine
 10
4.5
 20
3.43934
 30
0.0
 11
7.060659999999999
 21
6.0
 31
0.0
  0
LINE
  5
2B0
330
1F
100
AcDbEntity
  8
0
100
AcDbLine
 10
-6.0
 20
-7.060659999999999
 30
0.0
 11
-3.43934
 21
-4.5
 31
0.0
  0
LINE
  5
2B1
330
1F
100
AcDbEntity
  8
0
100
AcDbLine
 10
3.43934
 20
4.5
 30
0.0
 11
6.0
 21
7.060659999999999
 31
0.0
  0
LINE
  5
2B2
330
1F
100
AcDbEntity
  8
0
100
AcDbLine
 10
-9.584192
 20
9.536594
 30
0.0
 11
-9.536594
 21
9.584192
 31
0.0
  0
LINE
  5
2B3
330
1F
100
AcDbEntity
  8
0
100
AcDbLine
 10
2.425868
 20
-2.522928
 30
0.0
 11
2.523037
 21
-2.425755
 31
0.0
  0
LINE
  5
2B4
330
1F
100
AcDbEntity
  8
0
100
AcDbLine
 10
-2.523037
 20
2.425755
 30
0.0
 11
-2.425868
 21
2.522928
 31
0.0
  0
LINE
  5
2B5
330
1F
100
AcDbEntity
  8
0
100
AcDbLine
 10
2.523037
 20
-2.425755
 30
0.0
 11
2.616316
 21
-2.324842
 31
0.0
  0
LINE
  5
2B6
330
1F
100
AcDbEntity
  8
0
100
AcDbLine
 10
-2.616316
 20
2.324842
 30
0.0
 11
-2.523037
 21
2.425755
 31
0.0
  0
LINE
  5
2B7
330
1F
100
AcDbEntity
  8
0
100
AcDbLine
 10
9.584192
 20
-9.536594
 30
0.0
 11
9.629607
 21
-9.486908
 31
0.0
  0
LINE
  5
2B8
330
1F
100
AcDbEntity
  8
0
100
AcDbLine
 10
-9.629607
 20
9.486908
 30
0.0
 11
-9.584192
 21
9.536594
 31
0.0
  0
LINE
  5
2B9
330
1F
100
AcDbEntity
  8
0
100
AcDbLine
 10
2.616316
 20
-2.324842
 30
0.0
 11
2.705562
 21
-2.220345
 31
0.0
  0
LINE
  5
2BA
330
1F
100
AcDbEntity
  8
0
100
AcDbLine
 10
-2.705562
 20
2.220345
 30
0.0
 11
-2.616316
 21
2.324842
 31
0.0
  0
LINE
  5
2BB
330
1F
100
AcDbEntity
  8
0
100
AcDbLine
 10
-2.947757
 20
-1.886989
 30
0.0
 11
-2.435674
 21
-1.276711
 31
0.0
  0
LINE
  5
2BC
330
1F
100
AcDbEntity
  8
0
100
AcDbLine
 10
2.435674
 20
1.276711
 30
0.0
 11
2.947757
 21
1.886989
 31
0.0
  0
LINE
  5
2BD
330
1F
100
AcDbEntity
  8
0
100
AcDbLine
 10
9.629607
 20
-9.486908
 30
0.0
 11
9.672748
 21
-9.435234999999999
 31
0.0
  0
LINE
  5
2BE
330
1F
100
AcDbEntity
  8
0
100
AcDbLine
 10
-9.672748
 20
9.435234999999999
 30
0.0
 11
-9.629607
 21
9.486908
 31
0.0
  0
LINE
  5
2BF
330
1F
100
AcDbEntity
  8
0
100
AcDbLine
 10
2.705562
 20
-2.220345
 30
0.0
 11
2.790637
 21
-2.112426
 31
0.0
  0
LINE
  5
2C0
330
1F
100
AcDbEntity
  8
0
100
AcDbLine
 10
-2.790637
 20
2.112426
 30
0.0
 11
-2.705562
 21
2.220345
 31
0.0
  0
LINE
  5
2C1
330
1F
100
AcDbEntity
  8
0
100
AcDbLine
 10
9.672748
 20
-9.435234999999999
 30
0.0
 11
9.713526
 21
-9.381677999999999
 31
0.0
  0
LINE
  5
2C2
330
1F
100
AcDbEntity
  8
0
100
AcDbLine
 10
-9.713526
 20
9.381677999999999
 30
0.0
 11
-9.672748
 21
9.435234999999999
 31
0.0
  0
LINE
  5
2C3
330
1F
100
AcDbEntity
  8
0
100
AcDbLine
 10
2.790637
 20
-2.112426
 30
0.0
 11
2.871411
 21
-2.00125
 31
0.0
  0
LINE
  5
2C4
330
1F
100
AcDbEntity
  8
0
100
AcDbLine
 10
-2.871411
 20
2.00125
 30
0.0
 11
-2.790637
 21
2.112426
 31
0.0
  0
LINE
  5
2C5
330
1F
100
AcDbEntity
  8
0
100
AcDbLine
 10
9.713526
 20
-9.381677999999999
 30
0.0
 11
9.751859999999999
 21
-9.326345
 31
0.0
  0
LINE
  5
2C6
330
1F
100
AcDbEntity
  8
0
100
AcDbLine
 10
-9.751859999999999
 20
9.326345
 30
0.0
 11
-9.713526
 21
9.381677999999999
 31
0.0
  0
LINE
  5
2C7
330
1F
100
AcDbEntity
  8
0
100
AcDbLine
 10
2.871411
 20
-2.00125
 30
0.0
 11
2.947757
 21
-1.886989
 31
0.0
  0
LINE
  5
2C8
330
1F
100
AcDbEntity
  8
0
100
AcDbLine
 10
-2.947757
 20
1.886989
 30
0.0
 11
-2.871411
 21
2.00125
 31
0.0
  0
LINE
  5
2C9
330
1F
100
AcDbEntity
  8
0
100
AcDbLine
 10
9.751859999999999
 20
-9.326345
 30
0.0
 11
9.787673
 21
-9.269349
 31
0.0
  0
LINE
  5
2CA
330
1F
100
AcDbEntity
  8
0
100
AcDbLine
 10
-9.787673
 20
9.269349
 30
0.0
 11
-9.751859999999999
 21
9.326345
 31
0.0
  0
LINE
  5
2CB
330
1F
100
AcDbEntity
  8
0
100
AcDbLine
 10
-4.5
 20
-0.8660249999999999
 30
0.0
 11
-4.0
 21
0.0
 31
0.0
  0
LINE
  5
2CC
330
1F
100
AcDbEntity
  8
0
100
AcDbLine
 10
4.0
 20
0.0
 30
0.0
 11
4.5
 21
0.8660249999999999
 31
0.0
  0
LINE
  5
2CD
330
1F
100
AcDbEntity
  8
0
100
AcDbLine
 10
9.787673
 20
-9.269349
 30
0.0
 11
9.820893
 21
-9.210803
 31
0.0
  0
LINE
  5
2CE
330
1F
100
AcDbEntity
  8
0
100
AcDbLine
 10
-9.820893
 20
9.210803
 30
0.0
 11
-9.787673
 21
9.269349
 31
0.0
  0
LINE
  5
2CF
330
1F
100
AcDbEntity
  8
0
100
AcDbLine
 10
9.820893
 20
-9.210803
 30
0.0
 11
9.851453
 21
-9.150826
 31
0.0
  0
LINE
  5
2D0
330
1F
100
AcDbEntity
  8
0
100
AcDbLine
 10
-9.851453
 20
9.150826
 30
0.0
 11
-9.820893
 21
9.210803
 31
0.0
  0
LINE
  5
2D1
330
1F
100
AcDbEntity
  8
0
100
AcDbLine
 10
2.435674
 20
-1.276711
 30
0.0
 11
2.497385
 21
-1.151333
 31
0.0
  0
LINE
  5
2D2
330
1F
100
AcDbEntity
  8
0
100
AcDbLine
 10
-2.497385
 20
1.151333
 30
0.0
 11
-2.435674
 21
1.276711
 31
0.0
  0
LINE
  5
2D3
330
1F
100
AcDbEntity
  8
0
100
AcDbLine
 10
9.851453
 20
-9.150826
 30
0.0
 11
9.879292
 21
-9.089538
 31
0.0
  0
LINE
  5
2D4
330
1F
100
AcDbEntity
  8
0
100
AcDbLine
 10
-9.879292
 20
9.089538
 30
0.0
 11
-9.851453
 21
9.150826
 31
0.0
  0
LINE
  5
2D5
330
1F
100
AcDbEntity
  8
0
100
AcDbLine
 10
2.497385
 20
-1.151333
 30
0.0
 11
2.552647
 21
-1.022982
 31
0.0
  0
LINE
  5
2D6
330
1F
100
AcDbEntity
  8
0
100
AcDbLine
 10
-2.552647
 20
1.022982
 30
0.0
 11
-2.497385
 21
1.151333
 31
0.0
  0
LINE
  5
2D7
330
1F
100
AcDbEntity
  8
0
100
AcDbLine
 10
9.879292
 20
-9.089538
 30
0.0
 11
9.904352
 21
-9.027061999999999
 31
0.0
  0
LINE
  5
2D8
330
1F
100
AcDbEntity
  8
0
100
AcDbLine
 10
-9.904352
 20
9.027061999999999
 30
0.0
 11
-9.879292
 21
9.089538
 31
0.0
  0
LINE
  5
2D9
330
1F
100
AcDbEntity
  8
0
100
AcDbLine
 10
2.552647
 20
-1.022982
 30
0.0
 11
2.601318
 21
-0.89199
 31
0.0
  0
LINE
  5
2DA
330
1F
100
AcDbEntity
  8
0
100
AcDbLine
 10
-2.601318
 20
0.89199
 30
0.0
 11
-2.552647
 21
1.022982
 31
0.0
  0
LINE
  5
2DB
330
1F
100
AcDbEntity
  8
0
100
AcDbLine
 10
9.904352
 20
-9.027061999999999
 30
0.0
 11
9.926585
 21
-8.963526
 31
0.0
  0
LINE
  5
2DC
330
1F
100
AcDbEntity
  8
0
100
AcDbLine
 10
-9.926585
 20
8.963526
 30
0.0
 11
-9.904352
 21
9.027061999999999
 31
0.0
  0
LINE
  5
2DD
330
1F
100
AcDbEntity
  8
0
100
AcDbLine
 10
2.601318
 20
-0.89199
 30
0.0
 11
2.643271
 21
-0.758694
 31
0.0
  0
LINE
  5
2DE
330
1F
100
AcDbEntity
  8
0
100
AcDbLine
 10
-2.643271
 20
0.758694
 30
0.0
 11
-2.601318
 21
0.89199
 31
0.0
  0
LINE
  5
2DF
330
1F
100
AcDbEntity
  8
0
100
AcDbLine
 10
9.926585
 20
-8.963526
 30
0.0
 11
9.945943999999999
 21
-8.899054999999999
 31
0.0
  0
LINE
  5
2E0
330
1F
100
AcDbEntity
  8
0
100
AcDbLine
 10
-9.945943999999999
 20
8.899054999999999
 30
0.0
 11
-9.926585
 21
8.963526
 31
0.0
  0
LINE
  5
2E1
330
1F
100
AcDbEntity
  8
0
100
AcDbLine
 10
2.643271
 20
-0.758694
 30
0.0
 11
2.678399
 21
-0.623439
 31
0.0
  0
LINE
  5
2E2
330
1F
100
AcDbEntity
  8
0
100
AcDbLine
 10
-2.678399
 20
0.623439
 30
0.0
 11
-2.643271
 21
0.758694
 31
0.0
  0
LINE
  5
2E3
330
1F
100
AcDbEntity
  8
0
100
AcDbLine
 10
9.945943999999999
 20
-8.899054999999999
 30
0.0
 11
9.962392
 21
-8.833781
 31
0.0
  0
LINE
  5
2E4
330
1F
100
AcDbEntity
  8
0
100
AcDbLine
 10
-9.962392
 20
8.833781
 30
0.0
 11
-9.945943999999999
 21
8.899054999999999
 31
0.0
  0
LINE
  5
2E5
330
1F
100
AcDbEntity
  8
0
100
AcDbLine
 10
2.678399
 20
-0.623439
 30
0.0
 11
2.706611
 21
-0.486575
 31
0.0
  0
LINE
  5
2E6
330
1F
100
AcDbEntity
  8
0
100
AcDbLine
 10
-2.706611
 20
0.486575
 30
0.0
 11
-2.678399
 21
0.623439
 31
0.0
  0
LINE
  5
2E7
330
1F
100
AcDbEntity
  8
0
100
AcDbLine
 10
9.962392
 20
-8.833781
 30
0.0
 11
9.975894
 21
-8.767835999999999
 31
0.0
  0
LINE
  5
2E8
330
1F
100
AcDbEntity
  8
0
100
AcDbLine
 10
-9.975894
 20
8.767835999999999
 30
0.0
 11
-9.962392
 21
8.833781
 31
0.0
  0
LINE
  5
2E9
330
1F
100
AcDbEntity
  8
0
100
AcDbLine
 10
9.975894
 20
-8.767835999999999
 30
0.0
 11
9.986424
 21
-8.70135
 31
0.0
  0
LINE
  5
2EA
330
1F
100
AcDbEntity
  8
0
100
AcDbLine
 10
-9.986424
 20
8.70135
 30
0.0
 11
-9.975894
 21
8.767835999999999
 31
0.0
  0
LINE
  5
2EB
330
1F
100
AcDbEntity
  8
0
100
AcDbLine
 10
2.706611
 20
-0.486575
 30
0.0
 11
2.727834
 21
-0.348454
 31
0.0
  0
LINE
  5
2EC
330
1F
100
AcDbEntity
  8
0
100
AcDbLine
 10
-2.727834
 20
0.348454
 30
0.0
 11
-2.706611
 21
0.486575
 31
0.0
  0
LINE
  5
2ED
330
1F
100
AcDbEntity
  8
0
100
AcDbLine
 10
9.986424
 20
-8.70135
 30
0.0
 11
9.993960999999999
 21
-8.634459
 31
0.0
  0
LINE
  5
2EE
330
1F
100
AcDbEntity
  8
0
100
AcDbLine
 10
-9.993960999999999
 20
8.634459
 30
0.0
 11
-9.986424
 21
8.70135
 31
0.0
  0
LINE
  5
2EF
330
1F
100
AcDbEntity
  8
0
100
AcDbLine
 10
2.727834
 20
-0.348454
 30
0.0
 11
2.742013
 21
-0.209433
 31
0.0
  0
LINE
  5
2F0
330
1F
100
AcDbEntity
  8
0
100
AcDbLine
 10
-2.742013
 20
0.209433
 30
0.0
 11
-2.727834
 21
0.348454
 31
0.0
  0
LINE
  5
2F1
330
1F
100
AcDbEntity
  8
0
100
AcDbLine
 10
9.993960999999999
 20
-8.634459
 30
0.0
 11
9.998489
 21
-8.567297
 31
0.0
  0
LINE
  5
2F2
330
1F
100
AcDbEntity
  8
0
100
AcDbLine
 10
-9.998489
 20
8.567297
 30
0.0
 11
-9.993960999999999
 21
8.634459
 31
0.0
  0
LINE
  5
2F3
330
1F
100
AcDbEntity
  8
0
100
AcDbLine
 10
2.742013
 20
-0.209433
 30
0.0
 11
2.749112
 21
-0.069871
 31
0.0
  0
LINE
  5
2F4
330
1F
100
AcDbEntity
  8
0
100
AcDbLine
 10
-2.749112
 20
0.069871
 30
0.0
 11
-2.742013
 21
0.209433
 31
0.0
  0
LINE
  5
2F5
330
1F
100
AcDbEntity
  8
0
100
AcDbLine
 10
9.998489
 20
-8.567297
 30
0.0
 11
10.0
 21
-8.5
 31
0.0
  0
LINE
  5
2F6
330
1F
100
AcDbEntity
  8
0
100
AcDbLine
 10
-10.0
 20
8.5
 30
0.0
 11
-9.998489
 21
8.567297
 31
0.0
  0
LINE
  5
2F7
330
1F
100
AcDbEntity
  8
0
100
AcDbLine
 10
-10.0
 20
3.5
 30
0.0
 11
-10.0
 21
8.5
 31
0.0
  0
LINE
  5
2F8
330
1F
100
AcDbEntity
  8
0
100
AcDbLine
 10
-10.0
 20
-8.5
 30
0.0
 11
-10.0
 21
-3.5
 31
0.0
  0
LINE
  5
2F9
330
1F
100
AcDbEntity
  8
0
100
AcDbLine
 10
-9.5
 20
3.0
 30
0.0
 11
-9.5
 21
3.5
 31
0.0
  0
LINE
  5
2FA
330
1F
100
AcDbEntity
  8
0
100
AcDbLine
 10
-9.5
 20
-3.5
 30
0.0
 11
-9.5
 21
-3.0
 31
0.0
  0
LINE
  5
2FB
330
1F
100
AcDbEntity
  8
0
100
AcDbLine
 10
-8.5
 20
3.0
 30
0.0
 11
-8.5
 21
6.0
 31
0.0
  0
LINE
  5
2FC
330
1F
100
AcDbEntity
  8
0
100
AcDbLine
 10
-8.5
 20
-6.0
 30
0.0
 11
-8.5
 21
-3.0
 31
0.0
  0
LINE
  5
2FD
330
1F
100
AcDbEntity
  8
0
100
AcDbLine
 10
-6.0
 20
7.060659999999999
 30
0.0
 11
-6.0
 21
8.5
 31
0.0
  0
LINE
  5
2FE
330
1F
100
AcDbEntity
  8
0
100
AcDbLine
 10
-6.0
 20
-8.5
 30
0.0
 11
-6.0
 21
-7.060659999999999
 31
0.0
  0
LINE
  5
2FF
330
1F
100
AcDbEntity
  8
0
100
AcDbLine
 10
-4.5
 20
0.8660249999999999
 30
0.0
 11
-4.5
 21
3.43934
 31
0.0
  0
LINE
  5
300
330
1F
100
AcDbEntity
  8
0
100
AcDbLine
 10
-4.5
 20
-3.43934
 30
0.0
 11
-4.5
 21
-0.8660249999999999
 31
0.0
  0
LINE
  5
301
330
1F
100
AcDbEntity
  8
0
100
AcDbLine
 10
-3.5
 20
9.5
 30
0.0
 11
-3.5
 21
10.0
 31
0.0
  0
LINE
  5
302
330
1F
100
AcDbEntity
  8
0
100
AcDbLine
 10
-3.5
 20
-10.0
 30
0.0
 11
-3.5
 21
-9.5
 31
0.0
  0
LINE
  5
303
330
1F
100
AcDbEntity
  8
0
100
AcDbLine
 10
-3.0
 20
8.5
 30
0.0
 11
-3.0
 21
9.5
 31
0.0
  0
LINE
  5
304
330
1F
100
AcDbEntity
  8
0
100
AcDbLine
 10
-3.0
 20
-9.5
 30
0.0
 11
-3.0
 21
-8.5
 31
0.0
  0
LINE
  5
305
330
1F
100
AcDbEntity
  8
0
100
AcDbLine
 10
-2.749112
 20
-0.069871
 30
0.0
 11
-2.749112
 21
0.069871
 31
0.0
  0
LINE
  5
306
330
1F
100
AcDbEntity
  8
0
100
AcDbLine
 10
2.749112
 20
-0.069871
 30
0.0
 11
2.749112
 21
0.069871
 31
0.0
  0
LINE
  5
307
330
1F
100
AcDbEntity
  8
0
100
AcDbLine
 10
3.0
 20
8.5
 30
0.0
 11
3.0
 21
9.5
 31
0.0
  0
LINE
  5
308
330
1F
100
AcDbEntity
  8
0
100
AcDbLine
 10
3.0
 20
-9.5
 30
0.0
 11
3.0
 21
-8.5
 31
0.0
  0
LINE
  5
309
330
1F
100
AcDbEntity
  8
0
100
AcDbLine
 10
3.5
 20
9.5
 30
0.0
 11
3.5
 21
10.0
 31
0.0
  0
LINE
  5
30A
330
1F
100
AcDbEntity
  8
0
100
AcDbLine
 10
3.5
 20
-10.0
 30
0.0
 11
3.5
 21
-9.5
 31
0.0
  0
LINE
  5
30B
330
1F
100
AcDbEntity
  8
0
100
AcDbLine
 10
4.5
 20
-3.43934
 30
0.0
 11
4.5
 21
-0.8660249999999999
 31
0.0
  0
LINE
  5
30C
330
1F
100
AcDbEntity
  8
0
100
AcDbLine
 10
4.5
 20
0.8660249999999999
 30
0.0
 11
4.5
 21
3.43934
 31
0.0
  0
LINE
  5
30D
330
1F
100
AcDbEntity
  8
0
100
AcDbLine
 10
6.0
 20
7.060659999999999
 30
0.0
 11
6.0
 21
8.5
 31
0.0
  0
LINE
  5
30E
330
1F
100
AcDbEntity
  8
0
100
AcDbLine
 10
6.0
 20
-8.5
 30
0.0
 11
6.0
 21
-7.060659999999999
 31
0.0
  0
LINE
  5
30F
330
1F
100
AcDbEntity
  8
0
100
AcDbLine
 10
8.5
 20
3.0
 30
0.0
 11
8.5
 21
6.0
 31
0.0
  0
LINE
  5
310
330
1F
100
AcDbEntity
  8
0
100
AcDbLine
 10
8.5
 20
-6.0
 30
0.0
 11
8.5
 21
-3.0
 31
0.0
  0
LINE
  5
311
330
1F
100
AcDbEntity
  8
0
100
AcDbLine
 10
9.5
 20
3.0
 30
0.0
 11
9.5
 21
3.5
 31
0.0
  0
LINE
  5
312
330
1F
100
AcDbEntity
  8
0
100
AcDbLine
 10
9.5
 20
-3.5
 30
0.0
 11
9.5
 21
-3.0
 31
0.0
  0
LINE
  5
313
330
1F
100
AcDbEntity
  8
0
100
AcDbLine
 10
10.0
 20
3.5
 30
0.0
 11
10.0
 21
8.5
 31
0.0
  0
LINE
  5
314
330
1F
100
AcDbEntity
  8
0
100
AcDbLine
 10
10.0
 20
-8.5
 30
0.0
 11
10.0
 21
-3.5
 31
0.0
  0
ENDSEC
  0
SECTION
  2
OBJECTS
  0
DICTIONARY
  5
C
330
0
100
AcDbDictionary
  3
ACAD_GROUP
350
D
  3
ACAD_LAYOUT
350
1A
  3
ACAD_MATERIAL
350
3B
  3
ACAD_MLEADERSTYLE
350
337
  3
ACAD_MLINESTYLE
350
17
  3
ACAD_PLOTSETTINGS
350
19
  3
ACAD_SCALELIST
350
19E
  3
ACAD_VISUALSTYLE
350
2A
  3
ACDBHEADERROUNDTRIPXREC
350
315
  3
ACDBVARIABLEDICTIONARY
350
335
  0
DICTIONARY
  5
D
102
{ACAD_REACTORS
330
C
102
}
330
C
100
AcDbDictionary
  0
DICTIONARY
  5
1A
102
{ACAD_REACTORS
330
C
102
}
330
C
100
AcDbDictionary
  0
DICTIONARY
  5
3B
102
{ACAD_REACTORS
330
C
102
}
330
C
100
AcDbDictionary
  3
BYBLOCK
350
3D
  3
BYLAYER
350
3C
  3
GLOBAL
350
3E
  0
DICTIONARY
  5
337
102
{ACAD_REACTORS
330
C
102
}
330
C
100
AcDbDictionary
  0
DICTIONARY
  5
17
102
{ACAD_REACTORS
330
C
102
}
330
C
100
AcDbDictionary
  3
STANDARD
350
18
  0
DICTIONARY
  5
19
102
{ACAD_REACTORS
330
C
102
}
330
C
100
AcDbDictionary
  0
DICTIONARY
  5
19E
102
{ACAD_REACTORS
330
C
102
}
330
C
100
AcDbDictionary
  3
A0
350
19F
  3
A1
350
1A0
  3
A2
350
1A1
  3
A3
350
1A2
  3
A4
350
1A3
  3
A5
350
1A4
  3
A6
350
1A5
  3
A7
350
1A6
  3
A8
350
1A7
  3
A9
350
1A8
  3
B0
350
1A9
  3
B1
350
1AA
  3
B2
350
1AB
  3
B3
350
1AC
  3
B4
350
1AD
  3
B5
350
1AE
  3
B6
350
1AF
  3
B7
350
1B0
  3
B8
350
1B1
  3
B9
350
1B2
  3
C0
350
1B3
  3
C1
350
1B4
  3
C2
350
1B5
  3
C3
350
1B6
  3
C4
350
1B7
  3
C5
350
1B8
  3
C6
350
1B9
  3
C7
350
1BA
  3
C8
350
1BB
  3
C9
350
1BC
  3
D0
350
1BD
  3
D1
350
1BE
  3
D2
350
1BF
  0
DICTIONARY
  5
2A
102
{ACAD_REACTORS
330
C
102
}
330
C
100
AcDbDictionary
  3
2DWIREFRAME
350
2F
  3
3D_HIDDEN
350
31
  3
3DWIREFRAME
350
30
  3
BASIC
350
32
  3
BRIGHTEN
350
36
  3
COLORCHANGE
350
3A
  3
CONCEPTUAL
350
34
  3
DIM
350
35
  3
FACEPATTERN
350
39
  3
FLAT
350
2B
  3
FLATWITHEDGES
350
2C
  3
GOURAUD
350
2D
  3
GOURAUDWITHEDGES
350
2E
  3
LINEPATTERN
350
38
  3
REALISTIC
350
33
  3
THICKEN
350
37
  0
DICTIONARY
  5
315
102
{ACAD_REACTORS
330
C
102
}
330
C
100
AcDbDictionary
  3
CEPSNTYPE
350
31E
  3
DIMSTYLEDATA
350
334
  3
FINGERPRINTGUID
350
31F
  3
HYPERLINKBASE
350
318
  3
INSUNITS
350
31D
  3
LAYOUTDICT
350
31A
  3
LWETCUNION
350
31C
  3
PLOTSETDICT
350
31B
  3
PSVPSCALE
350
321
  3
PUCSBASE
350
324
  3
PUCSORGBACK
350
32A
  3
PUCSORGBOTTOM
350
326
  3
PUCSORGFRONT
350
329
  3
PUCSORGLEFT
350
327
  3
PUCSORGRIGHT
350
328
  3
PUCSORGTOP
350
325
  3
PUCSORTHOREF
350
322
  3
PUCSORTHOVIEW
350
323
  3
STYLESHEET
350
319
  3
TSTACKALIGN
350
316
  3
TSTACKSIZE
350
317
  3
UCSBASE
350
32D
  3
UCSORGBACK
350
333
  3
UCSORGBOTTOM
350
32F
  3
UCSORGFRONT
350
332
  3
UCSORGLEFT
350
330
  3
UCSORGRIGHT
350
331
  3
UCSORGTOP
350
32E
  3
UCSORTHOREF
350
32B
  3
UCSORTHOVIEW
350
32C
  3
VERSIONGUID
350
320
  0
DICTIONARY
  5
335
102
{ACAD_REACTORS
330
C
102
}
330
C
100
AcDbDictionary
  3
CANNOSCALE
350
33A
  3
DIMASSOC
350
33B
  3
HIDETEXT
350
33C
  3
PSOLHEIGHT
350
339
  3
PSOLWIDTH
350
338
  0
MATERIAL
  5
3D
102
{ACAD_REACTORS
330
3B
102
}
102
{ACAD_XDICTIONARY
360
33F
102
}
330
3B
100
AcDbMaterial
  1
ByBlock
  0
MATERIAL
  5
3C
102
{ACAD_REACTORS
330
3B
102
}
102
{ACAD_XDICTIONARY
360
33D
102
}
330
3B
100
AcDbMaterial
  1
ByLayer
  0
MATERIAL
  5
3E
102
{ACAD_REACTORS
330
3B
102
}
102
{ACAD_XDICTIONARY
360
341
102
}
330
3B
100
AcDbMaterial
  1
Global
  0
MLINESTYLE
  5
18
102
{ACAD_REACTORS
330
17
102
}
330
17
100
AcDbMlineStyle
  2
Standard
 70
     0
  3

 62
   256
 51
90.0
 52
90.0
 71
     2
 49
0.5
 62
   256
  6
BYLAYER
 49
-0.5
 62
   256
  6
BYLAYER
  0
ACAD_PROXY_OBJECT
  5
19F
102
{ACAD_REACTORS
330
19E
102
}
330
19E
100
AcDbProxyObject
 90
      499
 91
      503
 93
       41
310
903313A31580
  0
ACAD_PROXY_OBJECT
  5
1A0
102
{ACAD_REACTORS
330
19E
102
}
330
19E
100
AcDbProxyObject
 90
      499
 91
      503
 93
      105
310
903313A324000000000000004000
  0
ACAD_PROXY_OBJECT
  5
1A1
102
{ACAD_REACTORS
330
19E
102
}
330
19E
100
AcDbProxyObject
 90
      499
 91
      503
 93
      105
310
903313A344000000000000104000
  0
ACAD_PROXY_OBJECT
  5
1A2
102
{ACAD_REACTORS
330
19E
102
}
330
19E
100
AcDbProxyObject
 90
      499
 91
      503
 93
      105
310
903313A354000000000000144000
  0
ACAD_PROXY_OBJECT
  5
1A3
102
{ACAD_REACTORS
330
19E
102
}
330
19E
100
AcDbProxyObject
 90
      499
 91
      503
 93
      105
310
903313A384000000000000204000
  0
ACAD_PROXY_OBJECT
  5
1A4
102
{ACAD_REACTORS
330
19E
102
}
330
19E
100
AcDbProxyObject
 90
      499
 91
      503
 93
      113
310
904313A31304000000000000244000
  0
ACAD_PROXY_OBJECT
  5
1A5
102
{ACAD_REACTORS
330
19E
102
}
330
19E
100
AcDbProxyObject
 90
      499
 91
      503
 93
      113
310
904313A31364000000000000304000
  0
ACAD_PROXY_OBJECT
  5
1A6
102
{ACAD_REACTORS
330
19E
102
}
330
19E
100
AcDbProxyObject
 90
      499
 91
      503
 93
      113
310
904313A32304000000000000344000
  0
ACAD_PROXY_OBJECT
  5
1A7
102
{ACAD_REACTORS
330
19E
102
}
330
19E
100
AcDbProxyObject
 90
      499
 91
      503
 93
      113
310
904313A333040000000000003E4000
  0
ACAD_PROXY_OBJECT
  5
1A8
102
{ACAD_REACTORS
330
19E
102
}
330
19E
100
AcDbProxyObject
 90
      499
 91
      503
 93
      113
310
904313A34304000000000000444000
  0
ACAD_PROXY_OBJECT
  5
1A9
102
{ACAD_REACTORS
330
19E
102
}
330
19E
100
AcDbProxyObject
 90
      499
 91
      503
 93
      113
310
904313A35304000000000000494000
  0
ACAD_PROXY_OBJECT
  5
1AA
102
{ACAD_REACTORS
330
19E
102
}
330
19E
100
AcDbProxyObject
 90
      499
 91
      503
 93
      121
310
905313A3130304000000000000594000
  0
ACAD_PROXY_OBJECT
  5
1AB
102
{ACAD_REACTORS
330
19E
102
}
330
19E
100
AcDbProxyObject
 90
      499
 91
      503
 93
      105
310
903323A310000000000000010100
  0
ACAD_PROXY_OBJECT
  5
1AC
102
{ACAD_REACTORS
330
19E
102
}
330
19E
100
AcDbProxyObject
 90
      499
 91
      503
 93
      105
310
903343A310000000000000410100
  0
ACAD_PROXY_OBJECT
  5
1AD
102
{ACAD_REACTORS
330
19E
102
}
330
19E
100
AcDbProxyObject
 90
      499
 91
      503
 93
      105
310
903383A310000000000000810100
  0
ACAD_PROXY_OBJECT
  5
1AE
102
{ACAD_REACTORS
330
19E
102
}
330
19E
100
AcDbProxyObject
 90
      499
 91
      503
 93
      113
310
90431303A310000000000000910100
  0
ACAD_PROXY_OBJECT
  5
1AF
102
{ACAD_REACTORS
330
19E
102
}
330
19E
100
AcDbProxyObject
 90
      499
 91
      503
 93
      121
310
9053130303A310000000000001650100
  0
ACAD_PROXY_OBJECT
  5
1B0
102
{ACAD_REACTORS
330
19E
102
}
330
19E
100
AcDbProxyObject
 90
      499
 91
      503
 93
      257
310
90E312F31323822203D2031272D3022000000000000200FC000000000000284000
  0
ACAD_PROXY_OBJECT
  5
1B1
102
{ACAD_REACTORS
330
19E
102
}
330
19E
100
AcDbProxyObject
 90
      499
 91
      503
 93
      249
310
90D312F363422203D2031272D3022000000000000240FC000000000000284000
  0
ACAD_PROXY_OBJECT
  5
1B2
102
{ACAD_REACTORS
330
19E
102
}
330
19E
100
AcDbProxyObject
 90
      499
 91
      503
 93
      249
310
90D312F333222203D2031272D3022000000000000280FC000000000000284000
  0
ACAD_PROXY_OBJECT
  5
1B3
102
{ACAD_REACTORS
330
19E
102
}
330
19E
100
AcDbProxyObject
 90
      499
 91
      503
 93
      249
310
90D312F313622203D2031272D30220000000000002C0FC000000000000284000
  0
ACAD_PROXY_OBJECT
  5
1B4
102
{ACAD_REACTORS
330
19E
102
}
330
19E
100
AcDbProxyObject
 90
      499
 91
      503
 93
      249
310
90D332F333222203D2031272D30220000000000002E0FC000000000000284000
  0
ACAD_PROXY_OBJECT
  5
1B5
102
{ACAD_REACTORS
330
19E
102
}
330
19E
100
AcDbProxyObject
 90
      499
 91
      503
 93
      241
310
90C312F3822203D2031272D3022000000000000300FC000000000000284000
  0
ACAD_PROXY_OBJECT
  5
1B6
102
{ACAD_REACTORS
330
19E
102
}
330
19E
100
AcDbProxyObject
 90
      499
 91
      503
 93
      249
310
90D332F313622203D2031272D3022000000000000320FC000000000000284000
  0
ACAD_PROXY_OBJECT
  5
1B7
102
{ACAD_REACTORS
330
19E
102
}
330
19E
100
AcDbProxyObject
 90
      499
 91
      503
 93
      241
310
90C312F3422203D2031272D3022000000000000340FC000000000000284000
  0
ACAD_PROXY_OBJECT
  5
1B8
102
{ACAD_REACTORS
330
19E
102
}
330
19E
100
AcDbProxyObject
 90
      499
 91
      503
 93
      241
310
90C332F3822203D2031272D3022000000000000360FC000000000000284000
  0
ACAD_PROXY_OBJECT
  5
1B9
102
{ACAD_REACTORS
330
19E
102
}
330
19E
100
AcDbProxyObject
 90
      499
 91
      503
 93
      241
310
90C312F3222203D2031272D3022000000000000380FC000000000000284000
  0
ACAD_PROXY_OBJECT
  5
1BA
102
{ACAD_REACTORS
330
19E
102
}
330
19E
100
AcDbProxyObject
 90
      499
 91
      503
 93
      241
310
90C332F3422203D2031272D30220000000000003A0FC000000000000284000
  0
ACAD_PROXY_OBJECT
  5
1BB
102
{ACAD_REACTORS
330
19E
102
}
330
19E
100
AcDbProxyObject
 90
      499
 91
      503
 93
      161
310
90A3122203D2031272D30224000000000000284000
  0
ACAD_PROXY_OBJECT
  5
1BC
102
{ACAD_REACTORS
330
19E
102
}
330
19E
100
AcDbProxyObject
 90
      499
 91
      503
 93
      257
310
90E312D312F3222203D2031272D30220000000000003E0FC000000000000284000
  0
ACAD_PROXY_OBJECT
  5
1BD
102
{ACAD_REACTORS
330
19E
102
}
330
19E
100
AcDbProxyObject
 90
      499
 91
      503
 93
      225
310
90A3322203D2031272D302200000000000002100000000000000284000
  0
ACAD_PROXY_OBJECT
  5
1BE
102
{ACAD_REACTORS
330
19E
102
}
330
19E
100
AcDbProxyObject
 90
      499
 91
      503
 93
      225
310
90A3622203D2031272D302200000000000006100000000000000284000
  0
ACAD_PROXY_OBJECT
  5
1BF
102
{ACAD_REACTORS
330
19E
102
}
330
19E
100
AcDbProxyObject
 90
      499
 91
      503
 93
      249
310
90D31272D3022203D2031272D30220000000000000A100000000000000284000
  0
ACAD_PROXY_OBJECT
  5
2F
102
{ACAD_REACTORS
330
2A
102
}
330
2A
100
AcDbProxyObject
 90
      499
 91
      501
 93
      436
310
42CC9915DA5C99599C985B595049028333333333333E3BF0000000000000FB0107901411070040501600405405064090741402480A0340
1001
ACAD
1000
AcDbSavedByObjectVersion
1070
     0
  0
ACAD_PROXY_OBJECT
  5
31
102
{ACAD_REACTORS
330
2A
102
}
330
2A
100
AcDbProxyObject
 90
      499
 91
      501
 93
      500
310
424CD108121A5919195B90640502408333333333333E3BF0000000000000FB01079024090700405020000000000001110200405405064090740C02480A0340
1001
ACAD
1000
AcDbSavedByObjectVersion
1070
     0
  0
ACAD_PROXY_OBJECT
  5
30
102
{ACAD_REACTORS
330
2A
102
}
330
2A
100
AcDbProxyObject
 90
      499
 91
      501
 93
      436
310
42CCD915DA5C99599C985B595059028333333333333E3BF0000000000000FB0107901411070040501600405405064090741402480A0340
1001
ACAD
1000
AcDbSavedByObjectVersion
1070
     0
  0
ACAD_PROXY_OBJECT
  5
32
102
{ACAD_REACTORS
330
2A
102
}
330
2A
100
AcDbProxyObject
 90
      499
 91
      501
 93
      388
310
4150985CDA58D07406404333333333333E3BF0000000000000FB0107A41107004050150841D405064090741402480A0350
1001
ACAD
1000
AcDbSavedByObjectVersion
1070
     0
  0
ACAD_PROXY_OBJECT
  5
36
102
{ACAD_REACTORS
330
2A
102
}
330
2A
100
AcDbProxyObject
 90
      499
 91
      501
 93
      428
310
42109C9A59DA1D195B90C409028333333333333E3BF0000000000000FB010790141107004050150841D405064090741402480A029950
1001
ACAD
1000
AcDbSavedByObjectVersion
1070
     0
  0
ACAD_PROXY_OBJECT
  5
3A
102
{ACAD_REACTORS
330
2A
102
}
330
2A
100
AcDbProxyObject
 90
      499
 91
      501
 93
      452
310
42D0DBDB1BDC90DA185B99D95104090240C333333333333E3BF0000000000000FB0108901411070040501508421405064090741402480A0350
1001
ACAD
1000
AcDbSavedByObjectVersion
1070
     0
  0
ACAD_PROXY_OBJECT
  5
34
102
{ACAD_REACTORS
330
2A
102
}
330
2A
100
AcDbProxyObject
 90
      499
 91
      501
 93
      500
310
4290DBDB98D95C1D1D585B10940D028333333333333E3BF0000000000000FB0107902409070040501000000000000111010841D405064090740C02480A0340
1001
ACAD
1000
AcDbSavedByObjectVersion
1070
     0
  0
ACAD_PROXY_OBJECT
  5
35
102
{ACAD_REACTORS
330
2A
102
}
330
2A
100
AcDbProxyObject
 90
      499
 91
      501
 93
      412
310
40D11A5B50B409028333333333333E3BF0000000000000FB010790141107004050150841D405064090741402480A02677FFFFFD0
1001
ACAD
1000
AcDbSavedByObjectVersion
1070
     0
  0
ACAD_PROXY_OBJECT
  5
39
102
{ACAD_REACTORS
330
2A
102
}
330
2A
100
AcDbProxyObject
 90
      499
 91
      501
 93
      444
310
42D19858D95C185D1D195C9B90F409028333333333333E3BF0000000000000FB010790141107004050150841D405064090741402480A0350
1001
ACAD
1000
AcDbSavedByObjectVersion
1070
     0
  0
ACAD_PROXY_OBJECT
  5
2B
102
{ACAD_REACTORS
330
2A
102
}
330
2A
100
AcDbProxyObject
 90
      499
 91
      501
 93
      388
310
41119B185D240901404333333333333E3BF0000000000000F9010740A41107004050150841D405064090741402480A1B50
1001
ACAD
1000
AcDbSavedByObjectVersion
1070
     0
  0
ACAD_PROXY_OBJECT
  5
2C
102
{ACAD_REACTORS
330
2A
102
}
330
2A
100
AcDbProxyObject
 90
      499
 91
      501
 93
      476
310
43519B185D15DA5D1A115919D95CD0140901404333333333333E3BF0000000000000F9010740901411070040501600405405064090741402480A1B50
1001
ACAD
1000
AcDbSavedByObjectVersion
1070
     0
  0
ACAD_PROXY_OBJECT
  5
2D
102
{ACAD_REACTORS
330
2A
102
}
330
2A
100
AcDbProxyObject
 90
      499
 91
      501
 93
      412
310
41D1DBDD5C985D5910240902404333333333333E3BF0000000000000F9010740A411070040501641D405064090741402480A1B50
1001
ACAD
1000
AcDbSavedByObjectVersion
1070
     0
  0
ACAD_PROXY_OBJECT
  5
2E
102
{ACAD_REACTORS
330
2A
102
}
330
2A
100
AcDbProxyObject
 90
      499
 91
      501
 93
      500
310
4411DBDD5C985D5915DA5D1A115919D95CD0340902404333333333333E3BF0000000000000F9010740901411070040501600405405064090741402480A1B50
1001
ACAD
1000
AcDbSavedByObjectVersion
1070
     0
  0
ACAD_PROXY_OBJECT
  5
38
102
{ACAD_REACTORS
330
2A
102
}
330
2A
100
AcDbProxyObject
 90
      499
 91
      501
 93
      444
310
42D31A5B995C185D1D195C9B90E409028333333333333E3BF0000000000000FB010790141107004050750841D405064090741402483A0350
1001
ACAD
1000
AcDbSavedByObjectVersion
1070
     0
  0
ACAD_PROXY_OBJECT
  5
33
102
{ACAD_REACTORS
330
2A
102
}
330
2A
100
AcDbProxyObject
 90
      499
 91
      501
 93
      420
310
425499585B1A5CDD1A58D08409028333333333333E3BF0000000000000FB01079019070040501508421405064090741402480A1B40
1001
ACAD
1000
AcDbSavedByObjectVersion
1070
     0
  0
ACAD_PROXY_OBJECT
  5
37
102
{ACAD_REACTORS
330
2A
102
}
330
2A
100
AcDbProxyObject
 90
      499
 91
      501
 93
      412
310
41D51A1A58DAD95B90D409028333333333333E3BF0000000000000FB010790141107004050150C41D405064090741402480A0350
1001
ACAD
1000
AcDbSavedByObjectVersion
1070
     0
  0
XRECORD
  5
31E
102
{ACAD_REACTORS
330
315
102
}
330
315
100
AcDbXrecord
 90
        0
  0
XRECORD
  5
334
102
{ACAD_REACTORS
330
315
102
}
330
315
100
AcDbXrecord
1000
DSTYLE
1002
{
1070
   340
340
11
1002
}
  0
XRECORD
  5
31F
102
{ACAD_REACTORS
330
315
102
}
330
315
100
AcDbXrecord
  1
{1D3B0ECC-CB4D-4525-8A65-E6325724554A}
  0
XRECORD
  5
318
102
{ACAD_REACTORS
330
315
102
}
330
315
100
AcDbXrecord
  1

  0
XRECORD
  5
31D
102
{ACAD_REACTORS
330
315
102
}
330
315
100
AcDbXrecord
 90
        4
  0
XRECORD
  5
31A
102
{ACAD_REACTORS
330
315
102
}
330
315
100
AcDbXrecord
340
1A
  0
XRECORD
  5
31C
102
{ACAD_REACTORS
330
315
102
}
330
315
100
AcDbXrecord
 90
    10781
  0
XRECORD
  5
31B
102
{ACAD_REACTORS
330
315
102
}
330
315
100
AcDbXrecord
340
19
  0
XRECORD
  5
321
102
{ACAD_REACTORS
330
315
102
}
330
315
100
AcDbXrecord
 40
0.0
  0
XRECORD
  5
324
102
{ACAD_REACTORS
330
315
102
}
330
315
100
AcDbXrecord
340
0
  0
XRECORD
  5
32A
102
{ACAD_REACTORS
330
315
102
}
330
315
100
AcDbXrecord
 10
0.0
 20
0.0
 30
0.0
  0
XRECORD
  5
326
102
{ACAD_REACTORS
330
315
102
}
330
315
100
AcDbXrecord
 10
0.0
 20
0.0
 30
0.0
  0
XRECORD
  5
329
102
{ACAD_REACTORS
330
315
102
}
330
315
100
AcDbXrecord
 10
0.0
 20
0.0
 30
0.0
  0
XRECORD
  5
327
102
{ACAD_REACTORS
330
315
102
}
330
315
100
AcDbXrecord
 10
0.0
 20
0.0
 30
0.0
  0
XRECORD
  5
328
102
{ACAD_REACTORS
330
315
102
}
330
315
100
AcDbXrecord
 10
0.0
 20
0.0
 30
0.0
  0
XRECORD
  5
325
102
{ACAD_REACTORS
330
315
102
}
330
315
100
AcDbXrecord
 10
0.0
 20
0.0
 30
0.0
  0
XRECORD
  5
322
102
{ACAD_REACTORS
330
315
102
}
330
315
100
AcDbXrecord
340
0
  0
XRECORD
  5
323
102
{ACAD_REACTORS
330
315
102
}
330
315
100
AcDbXrecord
 70
     0
  0
XRECORD
  5
319
102
{ACAD_REACTORS
330
315
102
}
330
315
100
AcDbXrecord
  1

  0
XRECORD
  5
316
102
{ACAD_REACTORS
330
315
102
}
330
315
100
AcDbXrecord
 90
        1
  0
XRECORD
  5
317
102
{ACAD_REACTORS
330
315
102
}
330
315
100
AcDbXrecord
 90
       70
  0
XRECORD
  5
32D
102
{ACAD_REACTORS
330
315
102
}
330
315
100
AcDbXrecord
340
0
  0
XRECORD
  5
333
102
{ACAD_REACTORS
330
315
102
}
330
315
100
AcDbXrecord
 10
0.0
 20
0.0
 30
0.0
  0
XRECORD
  5
32F
102
{ACAD_REACTORS
330
315
102
}
330
315
100
AcDbXrecord
 10
0.0
 20
0.0
 30
0.0
  0
XRECORD
  5
332
102
{ACAD_REACTORS
330
315
102
}
330
315
100
AcDbXrecord
 10
0.0
 20
0.0
 30
0.0
  0
XRECORD
  5
330
102
{ACAD_REACTORS
330
315
102
}
330
315
100
AcDbXrecord
 10
0.0
 20
0.0
 30
0.0
  0
XRECORD
  5
331
102
{ACAD_REACTORS
330
315
102
}
330
315
100
AcDbXrecord
 10
0.0
 20
0.0
 30
0.0
  0
XRECORD
  5
32E
102
{ACAD_REACTORS
330
315
102
}
330
315
100
AcDbXrecord
 10
0.0
 20
0.0
 30
0.0
  0
XRECORD
  5
32B
102
{ACAD_REACTORS
330
315
102
}
330
315
100
AcDbXrecord
340
0
  0
XRECORD
  5
32C
102
{ACAD_REACTORS
330
315
102
}
330
315
100
AcDbXrecord
 70
     0
  0
XRECORD
  5
320
102
{ACAD_REACTORS
330
315
102
}
330
315
100
AcDbXrecord
  1
{FAEB1C32-E019-11D5-929B-00C0DF256EC4}
  0
DICTIONARYVAR
  5
33A
102
{ACAD_REACTORS
330
335
102
}
330
335
100
DictionaryVariables
280
     0
  1
1:1
  0
DICTIONARYVAR
  5
33B
102
{ACAD_REACTORS
330
335
102
}
330
335
100
DictionaryVariables
280
     0
  1
2
  0
DICTIONARYVAR
  5
33C
102
{ACAD_REACTORS
330
335
102
}
330
335
100
DictionaryVariables
280
     0
  1
1
  0
DICTIONARYVAR
  5
339
102
{ACAD_REACTORS
330
335
102
}
330
335
100
DictionaryVariables
280
     0
  1
80.000000
  0
DICTIONARYVAR
  5
338
102
{ACAD_REACTORS
330
335
102
}
330
335
100
DictionaryVariables
280
     0
  1
5.000000
  0
DICTIONARY
  5
33F
330
3D
100
AcDbDictionary
280
     1
  3
ACAD_XREC_ROUNDTRIP
360
340
  0
DICTIONARY
  5
33D
330
3C
100
AcDbDictionary
280
     1
  3
ACAD_XREC_ROUNDTRIP
360
33E
  0
DICTIONARY
  5
341
330
3E
100
AcDbDictionary
280
     1
  3
ACAD_XREC_ROUNDTRIP
360
342
  0
XRECORD
  5
340
102
{ACAD_REACTORS
330
33F
102
}
330
33F
100
AcDbXrecord
102
MATERIAL
148
0.0
149
0.0
149
0.0
 93
        0
 94
      127
282
     0
 72
     1
 77
     1
171
     1
175
     1
179
     1
273
     0
  0
XRECORD
  5
33E
102
{ACAD_REACTORS
330
33D
102
}
330
33D
100
AcDbXrecord
102
MATERIAL
148
0.0
149
0.0
149
0.0
 93
        0
 94
      127
282
     0
 72
     1
 77
     1
171
     1
175
     1
179
     1
273
     0
  0
XRECORD
  5
342
102
{ACAD_REACTORS
330
341
102
}
330
341
100
AcDbXrecord
102
MATERIAL
148
0.0
149
0.0
149
0.0
 93
        0
 94
      127
282
     0
 72
     1
 77
     1
171
     1
175
     1
179
     1
273
     0
  0
ENDSEC
  0
EOF
